<?xml version="1.0" encoding="UTF-8"?>
<svg width="839" height="1132" xmlns="http://www.w3.org/2000/svg">
 <title>Falcon B/W</title>

 <g>
  <path id="svg_7" fill="#000000" fill-rule="evenodd" stroke="#ffffff" stroke-width="0.5px" d="m177.800003,578.200012l21.199997,10.299988l1,0.5l1,0.5l1,0.5l1,0.5l1,0.5l1,0.5l0.5,0l0.5,0l0.199997,-0.299988l0.300003,-0.200012l0,-1l0,-1l-0.300003,-0.200012l-0.199997,-0.299988l-0.199997,-0.299988l-0.300003,-0.200012l-0.300003,-0.200012l-0.199997,-0.299988l-0.199997,-0.299988l-0.300003,-0.200012l-0.300003,-1.5l-0.199997,-1.5l-1,0q-1,0 -9.199997,-14q-8.300003,-14 -9.300003,-18.5q-1,-4.5 4.5,-13l5.5,-8.5l0.300003,-0.200012l0.199997,-0.299988l0.199997,-0.299988l0.300003,-0.200012l0.300003,-0.200012l0.199997,-0.299988l0.199997,-0.299988l0.300003,-0.200012l0.300003,-0.200012l0.199997,-0.299988l1,0l1,0l0.199997,0.299988l0.300003,0.200012l0.300003,0.200012l0.199997,0.299988l0.199997,0.299988l0.300003,0.200012l0.300003,0.200012l0.199997,0.299988l14.199997,14.299988q14.300003,14.200012 14.600006,15.200012q0.199997,1 14.199997,10.200012q14,9.299988 29,16.299988q15,7 17.5,8q2.5,1 4.5,1.5l2,0.5l1,0.5l1,0.5l0.200012,0.299988l0.299988,0.200012l0.299988,0.200012l0.200012,0.299988l1.5,0.5l1.5,0.5l-0.200012,0.299988l-0.299988,0.200012l-0.299988,0.200012l-0.200012,0.299988l-0.200012,0.299988l-0.299988,0.200012l-0.299988,0.200012l-0.200012,0.299988l-0.200012,0.299988l-0.299988,0.200012l-0.299988,0.200012l-0.200012,0.299988l-0.200012,0.299988l-0.299988,0.200012l-0.299988,0.200012l-0.200012,0.299988l-1,0.5l-1,0.5l-0.200012,0.299988q-0.299988,0.200012 -0.599976,0.400024q-0.200012,0.299988 -8.200012,4.299988q-8,4 -24.5,9q-16.5,5 -40,9q-23.5,4 -48.5,6.299988l-25,2.200012l0.199997,-1l0.300003,-1l0.300003,-0.200012l0.199997,-0.299988l-0.199997,-0.299988l-0.300003,-0.200012l-0.300003,-0.200012l-0.199997,-0.299988l0.199997,-0.299988q0.300003,-0.200012 2,-3l1.800003,-2.700012l0.199997,-0.299988l0.300003,-0.200012l0.300003,-1l0.199997,-1l-15.5,-0.200012q-15.5,-0.299988 -23,-0.799988q-7.5,-0.5 -24.5,-3q-17,-2.5 -34.5,-7.799988q-17.5,-5.200012 -20.700001,-23.200012l-3.299999,-18l0,-3.5l0,-3.5l0.299999,0.200012l0.200001,0.299988l2,0.5l2,0.5l0.200001,0.299988l0.299999,0.200012l0.299999,0.200012l0.200001,0.299988l25,11.5q25,11.5 44.5,18q19.5,6.5 34.5,10q15,3.5 19,4l4,0.5l3,0.299988l3,0.200012l-0.199997,-1l-0.300003,-1l-0.300003,-0.200012l-0.199997,-0.299988l-0.199997,-0.299988l-0.300003,-0.200012l-0.300003,-0.200012l-0.199997,-0.299988l-1,-0.5l-1,-0.5l-0.199997,-0.299988l-0.300003,-0.200012l-0.300003,-0.200012l-0.199997,-0.299988l-1,-0.5q-1,-0.5 -3.199997,-1.799988q-2.300003,-1.200012 -41.600006,-24q-39.199997,-22.700012 -50.699997,-30.700012q-11.5,-8 -20.700001,-16.299988q-9.299999,-8.200012 -12.299999,-19.700012q-3,-11.5 -4.5,-23q-1.5,-11.5 8.5,-3.5q10,8 24.5,20q14.5,12 37.199997,28.200012q22.800003,16.299988 25.800003,17.799988q3,1.5 7.5,4.5q4.5,3 12.300003,7.700012q7.699997,4.799988 29,15z"/>
  <path id="svg_11" fill="#000000" fill-rule="evenodd" stroke="#ffffff" stroke-width="0.5px" d="m753.5,291.200012l1.5,-0.200012l-0.200012,0.5l-0.299988,0.5l-0.299988,0.200012l-0.200012,0.299988l1.5,0.5l1.5,0.5l-0.200012,0.299988l-0.299988,0.200012l-0.299988,0.200012l-0.200012,0.299988l1,0l1,0l4,0l4,0l-0.200012,0.299988l-0.299988,0.200012l-0.299988,0.200012q-0.200012,0.299988 -1,1q-0.700012,0.799988 0,2.799988q0.799988,2 -0.200012,1.5l-1,-0.5l-0.200012,1q-0.299988,1 0,1l0.200012,0l-11.5,3.799988q-11.5,3.700012 -12.5,4.200012q-1,0.5 -1.799988,-0.799988q-0.700012,-1.200012 -1.400024,1q-0.799988,2.299988 -4.799988,3.799988q-4,1.5 -8.799988,2.200012q-4.700012,0.799988 -5,2.299988q-0.200012,1.5 -2,1q-1.700012,-0.5 -4.400024,1.700012q-2.799988,2.299988 -10.799988,6.299988q-8,4 -9,4.299988q-1,0.200012 -2,1.400024q-1,1.299988 -6,4.799988q-5,3.5 -6.799988,3.799988q-1.700012,0.200012 -5.400024,1.700012q-3.799988,1.5 -3.799988,2.5q0,1 -4,3q-4,2 -7.5,5.799988q-3.5,3.700012 -6,4.700012q-2.5,1 -4.299988,2.299988q-1.700012,1.200012 -2,2.700012q-0.200012,1.5 -1.700012,1.5q-1.5,0 -1.5,1q0,1 -1,1q-1,0 -2,2.5q-1,2.5 -2.799988,3q-1.700012,0.5 -3.700012,3q-2,2.5 -2.299988,3.5q-0.200012,1 -3,2.5q-2.700012,1.5 -4,2q-1.200012,0.5 -1.200012,2.5q0,2 -1.799988,2.5q-1.700012,0.5 -2,1.5q-0.200012,1 -1.700012,1q-1.5,0 -2,2.5q-0.5,2.5 -2.299988,3q-1.700012,0.5 -3.400024,3.5q-1.799988,3 -3,3.5q-1.299988,0.5 -1.599976,1.5q-0.200012,1 -1.200012,1q-1,0 -1,1.5q0,1.5 -1,1.5q-1,0 -1.5,2q-0.5,2 -2.700012,3.5q-2.299988,1.5 -2,2.5q0.200012,1 -0.799988,1q-1,0 -3.5,4.799988q-2.5,4.700012 -4,5.400024q-1.5,0.799988 -3.700012,5.299988q-2.299988,4.5 -3.299988,6q-1,1.5 -4.5,7.5q-3.5,6 -4.799988,8.200012q-1.200012,2.299988 -0.700012,2.799988q0.5,0.5 -1.5,0.799988q-2,0.200012 -2,3.200012q0,3 -1.5,3q-1.5,0 -2.299988,10q-0.700012,10 0.799988,19q1.5,9 4,15.5q2.5,6.5 4.799988,11.5q2.200012,5 3.200012,5q1,0 2.5,3.799988q1.5,3.700012 3.5,6.700012q2,3 6,4q4,1 8.5,1.700012q4.5,0.799988 5,1.599976q0.5,0.700012 1.5,0.200012q1,-0.5 5.5,0.200012q4.5,0.799988 5,1.599976q0.5,0.700012 5,1.200012q4.5,0.5 4.700012,0.799988q0.299988,0.200012 0.599976,0.700012l0.200012,0.5l0.200012,0q0.299988,0 0.599976,0.5l0.200012,0.5l0,2.799988q0,2.700012 0.5,4.400024q0.5,1.799988 1.5,1.799988l1,0l0,-1l0,-1l1.5,0.200012l1.5,0.299988l-0.200012,0.299988l-0.299988,0.200012l-0.299988,1.5l-0.200012,1.5l-1.5,-0.200012l-1.5,-0.299988l-1,0q-1,0 -2,0.299988q-1,0.200012 -1,1.200012q0,1 -1,1q-1,0 -1.200012,-1q-0.299988,-1 -0.799988,0q-0.5,1 -1.799988,0.200012q-1.200012,-0.700012 -3.700012,-0.400024l-2.5,0.200012l-6,-0.200012q-6,-0.299988 -52,-3.799988q-46,-3.5 -59,-17.5q-13,-14 -23.5,-29q-10.5,-15 -20.700012,-34.700012q-10.299988,-19.799988 -18.299988,-42.799988q-8,-23 -12.700012,-47.5l-4.799988,-24.5l0.200012,0l0.299988,0l0.5,-5.5l0.5,-5.5l0.299988,1l0.200012,1l1,0l1,0l0.200012,-1l0.299988,-1l0.299988,-1.5l0.200012,-1.5l1,0.200012l1,0.299988l0.200012,0.299988l0.299988,0.200012l0.299988,0.200012l0.200012,0.299988l0.200012,0.299988l0.299988,0.200012l0.299988,0.200012l0.200012,0.299988l0.5,0.299988l0.5,0.200012l1.799988,14q1.700012,14 2.200012,18l0.5,4l0.5,2.5l0.5,2.5l0.299988,-0.200012l0.200012,-0.299988l0.200012,-0.299988l0.299988,-0.200012l0.5,-1l0.5,-1l0.5,-1l0.5,-1l0.5,-1l0.5,-1l0.299988,-0.200012q0.200012,-0.299988 10.400024,-17l10.299988,-16.799988l0.299988,-0.200012l0.200012,-0.299988l0.200012,-0.299988l0.299988,-0.200012l0.299988,-0.200012l0.200012,-0.299988l0.200012,-0.299988l0.299988,-0.200012l0.5,-1l0.5,-1l0.299988,0l0.200012,0l0.200012,0l0.299988,0l0.5,1l0.5,1l0.299988,-0.200012l0.200012,-0.299988l0.200012,-0.299988l0.299988,-0.200012l0.5,1l0.5,1l0.299988,0.200012l0.200012,0.299988l0.200012,0.299988l0.299988,0.200012l0.299988,1l0.200012,1l-0.200012,0.5l-0.299988,0.5l-0.5,1l-0.5,1l-8.5,14.5q-8.5,14.5 -14.5,29q-6,14.5 1.5,34.5q7.5,20 18.799988,40.200012q11.200012,20.299988 23.700012,36.799988q12.5,16.5 19,24q6.5,7.5 25.5,9.5q19,2 25,2.5l6,0.5l2.5,0l2.5,0l-0.200012,-0.299988l-0.299988,-0.200012l-0.5,-1l-0.5,-1l-0.5,-1l-0.5,-1l-6,-14.5q-6,-14.5 -8.5,-27q-2.5,-12.5 -2,-25.5q0.5,-13 15,-38.5q14.5,-25.5 28,-43q13.5,-17.5 27.799988,-30.700012q14.200012,-13.299988 32.200012,-25.299988q18,-12 39,-22q21,-10 44.5,-18q23.5,-8 25,-8.299988zm-55.299988,35.599976q-0.200012,-0.299988 0,-0.599976q0.299988,-0.200012 0.299988,0.299988q0,0.5 -0.299988,0.299988zm-284,30q-0.200012,-0.299988 0,-0.599976q0.299988,-0.200012 0.299988,0.299988q0,0.5 -0.299988,0.299988zm220,14q-0.200012,-0.299988 0,-0.599976q0.299988,-0.200012 0.299988,0.299988q0,0.5 -0.299988,0.299988zm-10.200012,8.200012q0,-1 1.200012,-0.5q1.299988,0.5 0,1q-1.200012,0.5 -1.200012,-0.5zm-29.799988,32.799988q-0.200012,-0.299988 0,-0.599976q0.299988,-0.200012 0.299988,0.299988q0,0.5 -0.299988,0.299988zm-33,53q-0.200012,-0.299988 0,-0.599976q0.299988,-0.200012 0.299988,0.299988q0,0.5 -0.299988,0.299988zm-1,38q-0.200012,-0.299988 0,-0.599976q0.299988,-0.200012 0.299988,0.299988q0,0.5 -0.299988,0.299988zm60,50q-0.200012,-0.299988 0,-0.599976q0.299988,-0.200012 0.299988,0.299988q0,0.5 -0.299988,0.299988z"/>
  <path id="svg_12" fill="#000000" fill-rule="evenodd" stroke="#ffffff" stroke-width="0.5px" d="m446.5,1.2l0.5,-0.2l1,0.5q1,0.5 1.200012,2.5l0.299988,2l1.5,6.5q1.5,6.5 2,7q0.5,0.5 0.799988,0.700001l0.200012,0.299999l7.5,-1.5q7.5,-1.5 25,-4q17.5,-2.5 36,-3.5q18.5,-1 27.700012,-0.3q9.299988,0.8 10,1.6q0.799988,0.7 1.799988,0.2q1,-0.5 4.5,0q3.5,0.5 12,2q8.5,1.5 10.700012,2.200001q2.299988,0.799999 2.599976,1.299999l0.200012,0.5l-0.5,0.200001q-0.5,0.299999 -4.299988,3q-3.700012,2.799999 -3,3.599998q0.799988,0.700001 -0.700012,1.200001l-1.5,0.5l-0.200012,-0.299999l-0.299988,-0.200001l-0.299988,0.200001l-0.200012,0.299999l-1,0.5l-1,0.5l-1,0.5l-1,0.5l1,0.5l1,0.5l0.200012,0.299999l0.299988,0.200001l0.299988,1l0.200012,1l1,0.200001l1,0.299999l0,0.299999l0,0.200001l-2,-0.200001l-2,-0.299999l-3,-0.5q-3,-0.5 -16.5,-1.5q-13.5,-1 -36,0.5q-22.5,1.5 -52,7q-29.5,5.5 -40.5,13q-11,7.5 -21.799988,17.800003q-10.700012,10.199997 -22.700012,24.199997l-12,14l-0.5,1l-0.5,1l-0.299988,0.199997l-0.200012,0.300003l-0.200012,0.300003l-0.299988,0.199997l-0.299988,0.199997l-0.200012,0.300003l-0.200012,0.300003l-0.299988,0.199997l-0.299988,1.5l-0.200012,1.5l-1,0l-1,0l0.200012,-1l0.299988,-1l0.5,-1l0.5,-1l0.5,-1l0.5,-1l0.5,-1l0.5,-1l9.299988,-17.199997q9.200012,-17.300003 21,-32.600002q11.700012,-15.200001 17.200012,-20.700001q5.5,-5.5 5.799988,-5.700001l0.200012,-0.299999l0.200012,-0.299999l0.299988,-0.200001l0.299988,-0.200001l0.200012,-0.299999l0.200012,-0.299999l0.299988,-0.200001l0.299988,-0.200001l0.200012,-0.299999l0.200012,-0.299999l0.299988,-0.200001l0.299988,-0.200001l0.200012,-0.299999l0.200012,-0.299999l0.299988,-0.200001l0.299988,-0.200001l0.200012,-0.299999l0.200012,-0.299999l0.299988,-0.200001l0.299988,-0.200001l0.200012,-0.299999l0.200012,-0.299999l0.299988,-0.200001l0.299988,-0.200001l0.200012,-0.299999l-1.5,0l-1.5,0l-1.5,0.5l-1.5,0.5l-1,0.5l-1,0.5l-1.5,0.5q-1.5,0.5 -21.5,10.5q-20,10 -54.5,33q-34.5,23 -44.700012,42.699997q-10.299988,19.800003 -19.799988,46.300003q-9.5,26.5 -15,50.5q-5.5,24 -8,49.5l-2.5,25.5l-0.5,-2.5l-0.5,-2.5l-0.5,-4.5q-0.5,-4.5 -0.5,-35q0,-30.5 4,-54q4,-23.5 12,-50.5l8,-27l0.5,-1.5l0.5,-1.5l0.5,-1.5l0.5,-1.5l0.299988,-1l0.200012,-1l-1,0.199997l-1,0.300003l-0.200012,0.300003l-0.299988,0.199997l-0.299988,0.199997l-0.200012,0.300003l-1,0.5l-1,0.5l-1,0.5l-1,0.5l-18.199997,12.300003q-18.300003,12.199997 -33.300003,25.699997q-15,13.5 -30.5,32q-15.5,18.5 -20.5,35.5q-5,17 -7,31.5q-2,14.5 -2,30.5l0,16l0,2.5l0,2.5l-0.5,-1.5l-0.5,-1.5l-0.5,-2l-0.5,-2l-0.5,-1.5q-0.5,-1.5 -2,-9q-1.5,-7.5 -4,-40.5l-2.5,-33l-0.5,1.5l-0.5,1.5l-0.5,1l-0.5,1l-0.5,1.5l-0.5,1.5l-6,16.5q-6,16.5 -9,32q-3,15.5 -3.300003,16l-0.199997,0.5l-1.800003,3.5q-1.699997,3.5 -2.199997,5l-0.5,1.5l-0.300003,-0.200012l-0.199997,-0.299988l-0.199997,-0.299988l-0.300003,-0.200012l-0.300003,-0.200012l-0.199997,-0.299988l-0.199997,-0.299988l-0.300003,-0.200012l-0.5,1l-0.5,1l-0.5,-1l-0.5,-1l-0.5,-1.5q-0.5,-1.5 -1,0q-0.5,1.5 -2,-3.5q-1.5,-5 -4.199997,-5.5l-2.800003,-0.5l0,-0.5l0,-0.5l0.199997,-0.5q0.300003,-0.5 0.600006,-0.5l0.199997,0l0.199997,-1.5q0.300003,-1.5 0.300003,-2q0,-0.5 1.300003,-8q1.199997,-7.5 2.199997,-7.5q1,0 2.199997,-7.5q1.300003,-7.5 4.300003,-16q3,-8.5 4.5,-13q1.5,-4.5 2.5,-7q1,-2.5 2.5,-5q1.5,-2.5 3.199997,-7.5q1.800003,-5 2.800003,-5q1,0 3,-5q2,-5 3,-5q1,0 1,-1l0,-1l2.800003,1q2.699997,1 4.399994,1.5q1.800003,0.5 3,2.5q1.300003,2 1.600006,3l0.199997,1l1.5,0l1.5,0l1.5,-2.800003q1.5,-2.699997 6.300003,-9.399994q4.699997,-6.800003 5.399994,-7.600006q0.800003,-0.699997 2,-2q1.300003,-1.199997 1,-2.199997q-0.199997,-1 2.600006,-3.5q2.699997,-2.5 12.399994,-14q9.800003,-11.5 12.300003,-12.699997q2.5,-1.300003 8,-6.300003q5.5,-5 6.5,-5.300003q1,-0.199997 2.5,-2q1.5,-1.699997 5.5,-4.399994q4,-2.800003 4,-3.800003q0,-1 1.800003,-1q1.699997,0 2,-1q0.199997,-1 1.199997,-1q1,0 1,-1q0,-1 2,-1.800003q2,-0.699997 3.5,-1.699997q1.5,-1 3,-2q1.5,-1 3.5,-2.5q2,-1.5 4,-2.199997q2,-0.800003 2,-1.800003q0,-1 18.5,-10.199997q18.5,-9.300003 20.5,-9.600006l2,-0.199997l0.200012,2q0.299988,2 0.799988,4l0.5,2l0.299988,0.199997l0.200012,0.300003l0.200012,0.300003l0.299988,0.199997l0.299988,-0.199997l0.200012,-0.300003l0.200012,-0.300003l0.299988,-0.199997l0.299988,-0.199997l0.200012,-0.300003l0.200012,-0.300003l0.299988,-0.199997l0.299988,-0.199997l0.200012,-0.300003l3.5,-2.5q3.5,-2.5 10.700012,-8.199997q7.299988,-5.800003 7.599976,-6.800003q0.200012,-1 1.200012,-1q1,0 1,-1q0,-1 3.200012,-2.5q3.299988,-1.5 3.599976,-3q0.200012,-1.5 4.200012,-3q4,-1.5 6,-3.700001q2,-2.299999 5,-3.599998q3,-1.200001 3,-2.200001q0,-1 9.5,-6q9.5,-5 9.5,-6q0,-1 2.5,-1.799999q2.5,-0.700001 5,-1.700001q2.5,-1 16.5,-8q14,-7 30,-12q16,-5 20.5,-6q4.5,-1 5,-1.3zm105.700012,12.6q-0.200012,-0.3 0,-0.6q0.299988,-0.2 0.299988,0.3q0,0.5 -0.299988,0.3zm-350.000015,122.000003q-0.199997,-0.300003 0,-0.600006q0.300003,-0.199997 0.300003,0.300003q0,0.5 -0.300003,0.300003zm-57,44.399994q0.300003,-0.199997 0.600006,0q0.199997,0.300003 -0.300003,0.300003q-0.5,0 -0.300003,-0.300003z"/>
  <path id="svg_13" fill="#000000" fill-rule="evenodd" stroke="#DFDFE0" stroke-width="0.5px" d="m174.199997,738.200012l0.300003,-0.200012l0,1l0,1l-0.5,1l-0.5,1l-0.5,1l-0.5,1l-0.5,1l-0.5,1l-10,26q-10,26 -15,48q-5,22 -6,31q-1,9 -0.5,25.5q0.5,16.5 10,32.5q9.5,16 9.800003,16.5l0.199997,0.5l0.199997,1.5l0.300003,1.5l0.699997,3.5q0.800003,3.5 -0.199997,3.700012q-1,0.299988 -0.800003,0.599976l0.300003,0.200012l0.300003,0.200012l0.199997,0.299988l-1,0l-1,0l-1,0l-1,0l0.199997,0.299988l0.300003,0.200012l1.699997,3.5q1.800003,3.5 0.800003,3.5q-1,0 -1.800003,-1.5q-0.699997,-1.5 -1.199997,-3l-0.5,-1.5l-0.300003,-0.200012l-0.199997,-0.299988l-0.199997,-0.299988l-0.300003,-0.200012l-0.300003,-0.200012q-0.199997,-0.299988 -0.699997,-1.599976q-0.5,-1.200012 -2,-1.400024q-1.5,-0.299988 -3.699997,-2l-2.300003,-1.799988l-0.300003,-0.200012l-0.199997,-0.299988l-0.199997,-0.299988l-0.300003,-0.200012l-0.300003,-0.200012l-0.199997,-0.299988l-0.199997,-0.299988l-0.300003,-0.200012l-0.300003,-0.200012l-0.199997,-0.299988l-2,0l-2,0l0,0.299988l0,0.200012l-0.199997,0q-0.300003,0 -1.300003,-2.5q-1,-2.5 -2.300003,-3q-1.199997,-0.5 -1.199997,-1.5q0,-1 1,-1.200012q1,-0.299988 -0.5,-0.599976q-1.5,-0.200012 -3.699997,-5.200012q-2.300003,-5 -3,-7.5q-0.800003,-2.5 -1.800003,-2.5q-1,0 -1.800003,-3q-0.699997,-3 -1.199997,-6l-0.5,-3l0.5,-2l0.5,-2l0.300003,-0.200012l0.199997,-0.299988l-0.199997,-0.299988l-0.300003,-0.200012l-0.5,-1l-0.5,-1l-0.300003,0.200012l-0.199997,0.299988l-0.199997,0.299988l-0.300003,0.200012l-0.300003,0.200012l-0.199997,0.299988l-0.199997,0.299988l-0.300003,0.200012l-0.300003,0.200012l-0.199997,0.299988l-0.199997,0.299988l-0.300003,0.200012l-0.300003,0.200012l-0.199997,0.299988l-0.199997,0.299988l-0.300003,0.200012l-0.5,1l-0.5,1l-0.300003,0.200012l-0.199997,0.299988l-0.199997,0.299988l-0.300003,0.200012l0.300003,2.799988q0.199997,2.700012 0.399994,3q0.300003,0.200012 0.800003,2.200012l0.5,2l0.300003,0.200012l0.199997,0.299988l-1,0.5l-1,0.5l-1,0l-1,0l-0.199997,-0.299988l-0.300003,-0.200012l-0.300003,-0.200012l-0.199997,-0.299988l-0.199997,-0.299988l-0.300003,-0.200012l-0.300003,0.200012l-0.199997,0.299988l-1,0l-1,0l-0.199997,-0.299988l-0.300003,-0.200012l-0.5,-1l-0.5,-1l-0.300003,-0.200012l-0.199997,-0.299988l-1,-0.299988q-1,-0.200012 -4.199997,-11.200012q-3.300003,-11 -7.300003,-24.5q-4,-13.5 -3.300003,-14q0.800003,-0.5 0.800003,-6q0,-5.5 -1,-5.5q-1,0 -1,-1.799988q0,-1.700012 -1,-4.700012q-1,-3 -2,-6.700012q-1,-3.799988 -1.800003,-4.299988l-0.699997,-0.5l0.300003,-0.200012l0.199997,-0.299988l-0.199997,-0.299988l-0.300003,-0.200012l-0.300003,-0.200012l-0.199997,-0.299988l0.199997,-0.299988l0.300003,-0.200012l0.300003,-0.200012l0.199997,-0.299988l-0.199997,-0.299988l-0.300003,-0.200012l-0.5,-1l-0.5,-1l-0.300003,-1l-0.199997,-1l0,-0.5l0,-0.5l0.199997,0l0.300003,0l0.300003,0.200012l0.199997,0.299988l0.199997,0.299988l0.300003,0.200012l0.300003,0.200012l0.199997,0.299988l0.199997,0.299988l0.300003,0.200012l0.300003,0.200012l0.199997,0.299988l1.199997,0.299988q1.300003,0.200012 1.800003,1.200012l0.5,1l0.5,1l0.5,1l0.300003,-0.200012l0.199997,-0.299988l0.199997,-0.299988l0.300003,-0.200012l0.5,-1.5l0.5,-1.5l0.5,-1.5q0.5,-1.5 1.800003,-1l1.199997,0.5l0,-3.5l0,-3.5l0.199997,0l0.300003,0l0.5,1.5l0.5,1.5l7,25q7,25 7.5,26.5l0.5,1.5l0.5,2l0.5,2l0.5,1l0.5,1l0.5,-2.5l0.5,-2.5l0.5,-4.5q0.5,-4.5 1,-8q0.5,-3.5 4.5,-18q4,-14.5 11.5,-31q7.5,-16.5 20.199997,-36.700012l12.800003,-20.299988l0.199997,-0.299988l0.300003,-0.200012l0.300003,-0.200012l0.199997,-0.299988l0.199997,-0.299988l0.300003,-0.200012l0.5,-1l0.5,-1l0.300003,-0.200012l0.199997,-0.299988l0.199997,-0.299988l0.300003,-0.200012l0.5,-1l0.5,-1l0.300003,-0.200012l0.199997,-0.299988l0.199997,-0.299988zm-66.199997,158.799988q0,-1 1.5,-0.200012q1.5,0.700012 0,1q-1.5,0.200012 -1.5,-0.799988zm25.199997,14.200012q0.300003,-0.200012 0.600006,0q0.199997,0.299988 -0.300003,0.299988q-0.5,0 -0.300003,-0.299988z"/>
  <path id="svg_14" fill="#000000" fill-rule="evenodd" stroke="#B7B7B8" stroke-width="0.5px" d="m649.799988,42.200001l0.200012,0.299999l0.200012,0.299999l0.299988,0.200001l0.299988,0.200001l0.200012,0.299999l0.200012,0.299999l0.299988,0.200001l0.299988,1l0.200012,1l-1.5,0.200001l-1.5,0.299999l-1,0l-1,0l-0.200012,-0.299999q-0.299988,-0.200001 -1,0.599998q-0.799988,0.700001 -3.299988,1.700001q-2.5,1 -5.700012,2.299999q-3.299988,1.200001 -13,5q-9.799988,3.700001 -12,4.400002q-2.299988,0.799999 -7,2.799999q-4.799988,2 -5,3q-0.299988,1 -17,9q-16.799988,8 -16.799988,9q0,1 -4,2.800003q-4,1.699997 -24.5,16.199997q-20.5,14.5 -34.299988,27.800003q-13.700012,13.199997 -23.400024,25.399994q-9.799988,12.300003 -19.299988,27.800003q-9.5,15.5 -15.700012,31.199997q-6.299988,15.800003 -10.299988,29.800003q-4,14 -4.5,15q-0.5,1 -1.5,7.5q-1,6.5 -1.299988,13.5l-0.200012,7l-1,0l-1,0l0.200012,1l0.299988,1l0,0.5l0,0.5l-0.299988,1l-0.200012,1l1,0l1,0l0,-1l0,-1l3.5,-1.200012q3.5,-1.299988 5,-2.299988q1.5,-1 3.700012,-1.700012q2.299988,-0.799988 4,-1.599976q1.799988,-0.700012 2.599976,-1q0.700012,-0.200012 3.400024,-2q2.799988,-1.700012 4.799988,-2q2,-0.200012 2,-1.200012q0,-1 7.799988,-3q7.700012,-2 8.200012,-1.5q0.5,0.5 0.799988,0.299988l0.200012,-0.299988l0.200012,-0.299988l0.299988,-0.200012l0.299988,-0.200012l0.200012,-0.299988l1,-0.299988l1,-0.200012l0,-1l0,-1l1,0.200012l1,0.299988l0,0.299988l0,0.200012l0,0.200012l0,0.299988l0.200012,0.299988l0.299988,0.200012l0.299988,0.200012l0.200012,0.299988l0.200012,0.299988l0.299988,0.200012l0.299988,0.200012l0.200012,0.299988l-1,0.5l-1,0.5l-0.200012,0.299988l-0.299988,0.200012l-0.299988,0.200012q-0.200012,0.299988 -3.200012,2.599976l-3,2.200012l0,1.5l0,1.5l1,0.200012l1,0.299988l1.5,0.5l1.5,0.5l-0.200012,0.299988l-0.299988,0.200012l-0.299988,1.5l-0.200012,1.5l0,0.200012l0,0.299988l-1.5,0.5q-1.5,0.5 -7,3q-5.5,2.5 -27,15.200012q-21.5,12.799988 -19.5,28.799988l2,16l-0.5,-0.200012l-0.5,-0.299988l-0.200012,-0.299988l-0.299988,-0.200012l-0.299988,-0.200012l-0.200012,-0.299988l-0.200012,-0.299988l-0.299988,-0.200012l-0.299988,-0.200012l-0.200012,-0.299988l-1,-0.299988l-1,-0.200012l-0.200012,1.5l-0.299988,1.5l-0.5,2q-0.5,2 -0.799988,2.200012q-0.200012,0.299988 -1,-2l-0.700012,-2.200012l-0.5,5.5l-0.5,5.5l-0.299988,0l-0.200012,0l-0.200012,-1.5l-0.299988,-1.5l-1,-12q-1,-12 -0.5,-36q0.5,-24 4.5,-47q4,-23 11.5,-45q7.5,-22 17.799988,-40.800003q10.200012,-18.699997 22,-34q11.700012,-15.199997 26,-29q14.200012,-13.699997 32.700012,-26.199997q18.5,-12.5 38,-22q19.5,-9.5 32,-14q12.5,-4.5 14,-5l1.5,-0.5l1.5,-0.5l1.5,-0.5l1,-0.5l1,-0.5l-0.200012,-0.299999l-0.299988,-0.200001l-0.299988,-0.200001l-0.200012,-0.299999l-1,-0.5l-1,-0.5l-1,-0.5l-1,-0.5l-1,-0.5l-1,-0.5l-1.5,-0.5q-1.5,-0.5 -13,-4.200001l-11.5,-3.799999l0,-0.200001l0,-0.299999l-1,-0.299999l-1,-0.200001l-0.200012,-1l-0.299988,-1l-0.299988,-0.200001l-0.200012,-0.299999l-1,-0.5l-1,-0.5l1,-0.5l1,-0.5l1,-0.5l1,-0.5l0.200012,-0.299999l0.299988,-0.200001l0.299988,0.200001l0.200012,0.299999l1.5,-0.5q1.5,-0.5 0.700012,-1.200001q-0.700012,-0.799999 3,-3.599998q3.799988,-2.700001 4.299988,-3l0.5,-0.200001l1.5,-0.200001q1.5,-0.299999 7.700012,1.400002q6.299988,1.799999 8.599976,2.599998q2.200012,0.700001 10.200012,3.700001q8,3 12.5,4.700001q4.5,1.799999 4.5,2.799999q0,1 4.200012,2.5q4.299988,1.5 6,2.5q1.799988,1 2,2q0.299988,1 0.599976,1.200001z"/>
  <path id="svg_15" fill="#000000" fill-rule="evenodd" stroke="#E0DFE0" stroke-width="0.5px" d="m825.799988,281.200012l0.200012,0.299988l1,0.5l1,0.5l-1,0.299988l-1,0.200012l0.200012,1l0.299988,1l0.299988,1.5l0.200012,1.5l-2.5,0.200012q-2.5,0.299988 -2.700012,0.599976q-0.299988,0.200012 -6.599976,1.400024q-6.200012,1.299988 -12.700012,1.599976q-6.5,0.200012 -6.5,1.200012q0,1 -1.5,0.799988q-1.5,-0.299988 -2,1q-0.5,1.200012 -2,1q-1.5,-0.299988 -9.5,1.700012q-8,2 -10.5,2.299988q-2.5,0.200012 -2.5,1.200012l0,1l-2.5,0l-2.5,0l0,-1l0,-1l0.799988,-2q0.700012,-2 1,-2.200012q0.200012,-0.299988 0.400024,-0.599976l0.299988,-0.200012l0.299988,-0.200012l0.200012,-0.299988l-4,0l-4,0l-1,0l-1,0l0.200012,-0.299988l0.299988,-0.200012l0.299988,-0.200012l0.200012,-0.299988l-1.5,-0.5l-1.5,-0.5l0.200012,-0.299988l0.299988,-0.200012l0.299988,-0.5l0.200012,-0.5l0.200012,0l0.299988,0l0.299988,-0.200012l0.200012,-0.299988l2,-0.5l2,-0.5l16.5,-4q16.5,-4 19,-4.5l2.5,-0.5l2,-0.5l2,-0.5l1.5,-0.5l1.5,-0.5l-1,-0.5l-1,-0.5l-1.5,-0.5l-1.5,-0.5l-1.5,-0.5l-1.5,-0.5l-1,-0.5q-1,-0.5 -25,-8q-24,-7.5 -47,-11.5q-23,-4 -45,-4q-22,0 -33.5,4.5q-11.5,4.5 -27.5,13.5q-16,9 -27.200012,18.700012l-11.299988,9.799988l-0.299988,0.200012l-0.200012,0.299988l-0.200012,0.299988l-0.299988,0.200012l-0.299988,0.200012l-0.200012,0.299988l-0.200012,0.299988l-0.299988,0.200012l-0.299988,0.200012l-0.200012,0.299988l-0.200012,0.299988l-0.299988,0.200012l-0.299988,0.200012l-0.200012,0.299988l-0.200012,0.299988l-0.299988,0.200012l-0.299988,0.200012l-0.200012,0.299988l-0.200012,0.299988l-0.299988,0.200012l-0.299988,0.200012l-0.200012,0.299988l-0.200012,0.299988l-0.299988,0.200012l-0.299988,1l-0.200012,1l-1,0l-1,0l0.200012,-1l0.299988,-1l0.299988,-0.200012l0.200012,-0.299988l0.200012,-0.299988l0.299988,-0.200012l0.299988,-0.200012l0.200012,-0.299988l0.200012,-0.299988l0.299988,-0.200012l0.5,-1l0.5,-1l0.299988,-0.200012l0.200012,-0.299988l0.200012,-0.299988l0.299988,-0.200012l0.5,-1l0.5,-1l0.299988,-0.200012l0.200012,-0.299988l6.799988,-10.700012q6.700012,-10.799988 7.200012,-11.799988l0.5,-1l0.299988,-0.200012l0.200012,-0.299988l0.200012,-0.299988l0.299988,-0.200012l0.5,-1l0.5,-1l0.5,-1l0.5,-1l0.299988,-0.200012l0.200012,-0.299988l-1,0l-1,0l-1.5,0.5l-1.5,0.5l-1.5,0.5l-1.5,0.5l-2,0.5q-2,0.5 -16,5.5q-14,5 -32,14.5q-18,9.5 -33,21q-15,11.5 -27.200012,25.200012l-12.299988,13.799988l-0.299988,0.200012l-0.200012,0.299988l-0.200012,0.299988l-0.299988,0.200012l-0.5,1l-0.5,1l-0.299988,0.200012l-0.200012,0.299988l-0.200012,0.299988l-0.299988,0.200012l-0.299988,0l-0.200012,0l-0.200012,-1l-0.299988,-1l-0.299988,-0.200012l-0.200012,-0.299988l-0.200012,-0.299988l-0.299988,-0.200012l-0.5,-1l-0.5,-1l-0.299988,0.200012l-0.200012,0.299988l-0.200012,0.299988l-0.299988,0.200012l-0.5,-1l-0.5,-1l-0.299988,0l-0.200012,0l0,-0.200012l0,-0.299988l0.200012,-0.299988l0.299988,-0.200012l0.5,-1l0.5,-1l0.299988,-0.200012l0.200012,-0.299988l14,-16q14,-16 28,-27.5q14,-11.5 18,-14q4,-2.5 5,-3l1,-0.5l0.200012,-0.299988l0.299988,-0.200012l0.299988,-0.200012l0.200012,-0.299988l1,-0.5l1,-0.5l1,-0.5l1,-0.5l0.200012,-0.299988l0.299988,-0.200012l0.299988,-0.200012l0.200012,-0.299988l0.200012,-0.299988l0.299988,-0.200012l0.299988,-0.200012l0.200012,-0.299988l-5,0q-5,0 -10.5,0.5q-5.5,0.5 -21.5,4.5l-16,4l-1.5,0.299988l-1.5,0.200012l0.200012,-1.5l0.299988,-1.5l0.299988,-0.200012l0.200012,-0.299988l-1.5,-0.5l-1.5,-0.5l-1,-0.299988l-1,-0.200012l0,-1.5l0,-1.5l3,-2.200012q3,-2.299988 3.200012,-2.599976l0.299988,-0.200012l0.299988,-0.200012l0.200012,-0.299988l1,-0.5l1,-0.5l-0.200012,-0.299988l-0.299988,-0.200012l-0.299988,-0.200012l-0.200012,-0.299988l-0.200012,-0.299988l-0.299988,-0.200012l-0.299988,-0.200012l-0.200012,-0.299988l0,-0.299988l0,-0.200012l0.5,-1.5q0.5,-1.5 5,-2q4.5,-0.5 4.700012,0.5q0.299988,1 1,0.200012q0.799988,-0.700012 2.299988,-1.700012q1.5,-1 2.5,-0.5q1,0.5 1.5,-0.799988q0.5,-1.200012 1.5,-1.200012q1,0 1.5,0.799988q0.5,0.700012 1.5,0.400024q1,-0.200012 1,-1.200012q0,-1 2,-0.5q2,0.5 2.200012,1.5q0.299988,1 0.599976,-0.5q0.200012,-1.5 7,-3q6.700012,-1.5 7,0q0.200012,1.5 1,1q0.700012,-0.5 3.400024,-2.299988q2.799988,-1.700012 5.599976,-2q2.700012,-0.200012 6.400024,-1q3.799988,-0.700012 6.799988,-0.400024q3,0.200012 3.5,1q0.5,0.700012 2,0.400024q1.5,-0.200012 1.5,0.799988q0,1 1,1q1,0 0.5,1.200012q-0.5,1.299988 4,1.299988q4.5,0 3.5,-0.5q-1,-0.5 2.799988,-1.200012q3.700012,-0.799988 6,-2.599976q2.200012,-1.700012 5.400024,-2q3.299988,-0.200012 3.599976,-1.200012l0.200012,-1l1.799988,-0.5q1.700012,-0.5 2.400024,0.300003q0.799988,0.699997 1.799988,-0.800003q1,-1.5 3,-1.199997q2,0.199997 2,-0.800003q0,-1 1,-1q1,0 1,1q0,1 3.5,-0.5q3.5,-1.5 4,-2.300003q0.5,-0.699997 1.299988,0q0.700012,0.800003 0.400024,-0.399994q-0.200012,-1.300003 2.799988,-2.300003q3,-1 4.5,-1q1.5,0 1.700012,-0.300003l0.299988,-0.199997l0.299988,-0.199997l0.200012,-0.300003l0.200012,-0.300003l0.299988,-0.199997l0.299988,0.199997l0.200012,0.300003l0.200012,0.300003l0.299988,0.199997l0.299988,0.199997l0.200012,0.300003l1,0.5l1,0.5l0.5,0.5q0.5,0.5 -1,0.800003q-1.5,0.199997 -1.5,1.699997q0,1.5 1.5,1.5q1.5,0 1.299988,1l-0.299988,1l-0.299988,0.199997l-0.200012,0.300003l1,0.5l1,0.5l0.200012,0.300003l0.299988,0.199997l0.299988,-1.5q0.200012,-1.5 2,-1.5q1.700012,0 6,-1q4.200012,-1 4.200012,-2q0,-1 2.5,-2q2.5,-1 3,-0.199997q0.5,0.699997 1.5,0.199997q1,-0.5 3,-2q2,-1.5 3,-1.800003q1,-0.199997 1.200012,0.800003q0.299988,1 1,0.199997q0.799988,-0.699997 2.799988,-0.699997q2,0 0.799988,-0.699997q-1.299988,-0.800003 1,-1.600006q2.200012,-0.699997 3.400024,-1q1.299988,-0.199997 2,-1.399994q0.799988,-1.300003 2.799988,-1.300003q2,0 3.5,-0.5q1.5,-0.5 2.5,-0.199997q1,0.199997 1,-1.300003q0,-1.5 3,-1.5q3,0 3,-1q0,-1 1,-1q1,0 1.5,0.800003q0.5,0.699997 3,0q2.5,-0.800003 2.5,0.199997q0,1 2.5,0.199997q2.5,-0.699997 4.5,-0.199997q2,0.5 9.5,0.800003q7.5,0.199997 7.5,1.199997q0,1 -1.5,1.199997q-1.5,0.300003 1.5,0q3,-0.199997 3.799988,1.300003q0.700012,1.5 1,0.5q0.200012,-1 3.400024,-0.5q3.299988,0.5 3,1.300003q-0.200012,0.699997 0.799988,1q1,0.199997 1,-1.300003q0,-1.5 4.200012,0q4.299988,1.5 5.299988,1.5q1,0 4.299988,0.199997q3.200012,0.300003 2.700012,0.800003q-0.5,0.5 2.299988,0.800003q2.700012,0.199997 3.400024,0.699997q0.799988,0.5 0.799988,-0.5q0,-1 2.200012,-0.5q2.299988,0.5 3.599976,1q1.200012,0.5 1.700012,1.300003q0.5,0.699997 2.5,0.399994q2,-0.199997 2.200012,1.300003q0.299988,1.5 0.599976,0.5q0.200012,-1 5.700012,0.199997q5.5,1.300003 5,1.800003q-0.5,0.5 0.700012,1.199997q1.299988,0.800003 1.799988,-0.699997q0.5,-1.5 1.200012,-0.699997q0.799988,0.699997 1.799988,1.199997q1,0.5 6.5,1.5q5.5,1 10.5,3.5q5,2.5 6,2.199997q1,-0.199997 1.200012,1.300003q0.299988,1.5 0.599976,0.5q0.200012,-1 2,0q1.700012,1 2,2q0.200012,1 3.700012,2.200012q3.5,1.299988 2.5,1.799988q-1,0.5 1.5,0.5q2.5,0 4.700012,1.299988q2.299988,1.200012 3,2.400024q0.799988,1.299988 3,2q2.299988,0.799988 4,1.799988q1.799988,1 1.799988,2q0,1 1,1q1,0 1,1.799988q0,1.700012 2.200012,2q2.299988,0.200012 2.299988,1.700012q0,1.5 0.299988,1.700012zm-160.599976,-46.400009q-0.200012,-0.300003 0,-0.600006q0.299988,-0.199997 0.299988,0.300003q0,0.5 -0.299988,0.300003zm62,6q-0.200012,-0.300003 0,-0.600006q0.299988,-0.199997 0.299988,0.300003q0,0.5 -0.299988,0.300003zm27,6q-0.200012,-0.300003 0,-0.600006q0.299988,-0.199997 0.299988,0.300003q0,0.5 -0.299988,0.300003zm-169,8q-0.200012,-0.300003 0,-0.600006q0.299988,-0.199997 0.299988,0.300003q0,0.5 -0.299988,0.300003zm195,0q-0.200012,-0.300003 0,-0.600006q0.299988,-0.199997 0.299988,0.300003q0,0.5 -0.299988,0.300003zm-201.200012,0.399994q1,-0.199997 0.799988,0.800003q-0.299988,1 -1.599976,1.5q-1.200012,0.5 -0.700012,-0.700012q0.5,-1.299988 1.5,-1.599991zm-4.799988,2.599991q-0.200012,-0.299988 0,-0.599976q0.299988,-0.200012 0.299988,0.299988q0,0.5 -0.299988,0.299988zm-25,4q-0.200012,-0.299988 0,-0.599976q0.299988,-0.200012 0.299988,0.299988q0,0.5 -0.299988,0.299988z"/>
  <path id="svg_16" fill="#000000" fill-rule="evenodd" stroke="#B2B2B3" stroke-width="0.5px" d="m97.199997,225.5l0.300003,1.5l0.300003,1.800003q0.199997,1.699997 1.399994,7.399994q1.300003,5.800003 2,6.300003q0.800003,0.5 2,9q1.300003,8.5 2.300003,13.5q1,5 1.5,8.5l0.5,3.5l0.5,2.5l0.5,2.5l0.5,-3.5l0.5,-3.5l0.300003,-1.5l0.199997,-1.5l0,-0.5l0,-0.5l0.199997,-0.5q0.300003,-0.5 0.600006,-0.5l0.199997,0l1.5,1.200012q1.5,1.299988 2.699997,2q1.300003,0.799988 2.300003,5.299988q1,4.5 1.5,3q0.5,-1.5 1,0l0.5,1.5l0.5,1l0.5,1l0.5,-1l0.5,-1l0.300003,-0.200012q0.199997,-0.299988 1.699997,-0.599976q1.5,-0.200012 3,-3.700012l1.5,-3.5l-1.199997,14q-1.300003,14 -0.800003,45.5q0.5,31.5 3.5,43.5q3,12 11,30.5q8,18.5 18.5,35q10.5,16.5 14.5,21.5q4,5 4.5,6l0.5,1l0.300003,0.200012l0.199997,0.299988l0.199997,0.299988l0.300003,0.200012l0.300003,0.200012l0.199997,0.299988l0.199997,0.299988l0.300003,0.200012l0.300003,0.200012l0.199997,0.299988l0.199997,0.299988l0.300003,0.200012l0.300003,0.200012l0.199997,0.299988l0.199997,0.299988l0.300003,0.200012l0.5,1l0.5,1l0.300003,0.200012l0.199997,0.299988l1,0.5l1,0.5l0.199997,0.299988l0.300003,0.200012l0.300003,0.200012l0.199997,0.299988l0.199997,0.299988l0.300003,0.200012l0.300003,1l0.199997,1l-1,-0.200012l-1,-0.299988l-0.199997,-0.299988l-0.300003,-0.200012l-0.300003,-0.200012l-0.199997,-0.299988l-0.199997,-0.299988l-0.300003,-0.200012l-0.300003,-0.200012l-0.199997,-0.299988l-0.199997,-0.299988l-0.300003,-0.200012l-0.300003,-0.200012l-0.199997,-0.299988l-0.199997,-0.299988l-0.300003,-0.200012l-0.300003,-0.200012l-0.199997,-0.299988l-0.199997,-0.299988l-0.300003,-0.200012l-0.300003,-0.200012l-0.199997,-0.299988l-1,-0.5l-1,-0.5l-0.199997,-0.299988l-0.300003,-0.200012l-0.300003,-0.200012l-0.199997,-0.299988l-0.199997,-0.299988l-0.300003,-0.200012l-0.300003,-0.200012l-0.199997,-0.299988l-0.199997,-0.299988l-0.300003,-0.200012l-0.300003,-0.200012q-0.199997,-0.299988 -7.399994,-7q-7.300003,-6.799988 -18.300003,-19.299988q-11,-12.5 -21.300003,-28.700012q-10.199997,-16.299988 -18,-34.599976q-7.699997,-18.200012 -13.199997,-39.700012q-5.5,-21.5 -8,-47l-2.5,-25.5l-0.5,-2l-0.5,-2l-0.5,1.5l-0.5,1.5l-0.5,1.5l-0.5,1.5l-21.5,64q-21.5,64 -20.5,70.5q1,6.5 7.5,21.5q6.5,15 16.800003,30.200012q10.199997,15.299988 13,18.599976q2.699997,3.200012 3.199997,4.200012l0.5,1l0.300003,0.200012l0.199997,0.299988l0.199997,0.299988l0.300003,0.200012l0.300003,0.200012l0.199997,0.299988l0.199997,0.299988l0.300003,0.200012l0.300003,0.200012l0.199997,0.299988l0.199997,0.299988l0.300003,0.200012l0.300003,0.200012l0.199997,0.299988l0.199997,0.299988l0.300003,0.200012l0.5,1l0.5,1l0.300003,0.200012l0.199997,0.299988l1,0.5l1,0.5l0.199997,0.299988l0.300003,0.200012l0.300003,0.200012l0.199997,0.299988l0.199997,0.299988l0.300003,0.200012l0.300003,0.200012l0.199997,0.299988l0.199997,0.299988l0.300003,0.200012l0.300003,1l0.199997,1l-1,-0.200012l-1,-0.299988l-0.199997,-0.299988l-0.300003,-0.200012l-0.300003,-0.200012l-0.199997,-0.299988l-0.199997,-0.299988l-0.300003,-0.200012l-0.300003,-0.200012l-0.199997,-0.299988l-0.199997,-0.299988l-0.300003,-0.200012l-0.300003,-0.200012l-0.199997,-0.299988l-0.199997,-0.299988l-0.300003,-0.200012l-0.300003,-0.200012l-0.199997,-0.299988l-0.199997,-0.299988l-0.300003,-0.200012l-0.300003,-0.200012l-0.199997,-0.299988l-0.199997,-0.299988l-0.300003,-0.200012l-0.300003,-0.200012l-0.199997,-0.299988l-0.199997,-0.299988l-0.300003,-0.200012l-0.300003,-0.200012l-0.199997,-0.299988l-0.199997,-0.299988l-0.300003,-0.200012l-0.300003,-0.200012l-0.199997,-0.299988l-0.199997,-0.299988l-0.300003,-0.200012l-0.300003,-0.200012l-0.199997,-0.299988l-1,-0.5q-1,-0.5 -17,-16.5q-16,-16 -25.799999,-29.700012l-9.700001,-13.799988l-0.299999,-0.200012l-0.200001,-0.299988l-0.200001,-0.299988l-0.299999,-0.200012l-0.5,-1l-0.5,-1l-0.5,-1l-0.5,-1l-0.299999,-0.200012l-0.200001,-0.299988l-0.200001,-0.299988l-0.299999,-0.200012l-0.5,1.5l-0.5,1.5l-0.5,2.5l-0.5,2.5l-1.5,10q-1.5,10 -1,33q0.5,23 4.5,40q4,17 5.299999,19.200012q1.200001,2.299988 26.700001,19.299988q25.5,17 39,25q13.5,8 14.5,8.5l1,0.5l1,0.5l1,0.5l1,0.5l1,0.5l0.199997,0.299988l0.300003,0.200012l0.300003,0.200012l0.199997,0.299988l1,0.5l1,0.5l1.5,0.5l1.5,0.5l1,0.299988l1,0.200012l0,1l0,1l-1,-0.200012l-1,-0.299988l-1,-0.5l-1,-0.5l-1,-0.5l-1,-0.5l-1.5,-0.5l-1.5,-0.5l-1,-0.5l-1,-0.5l-1.5,-0.5q-1.5,-0.5 -24,-10q-22.5,-9.5 -42.5,-20.5l-20,-11l-0.200001,-0.299988l-0.299999,-0.200012l-0.299999,-0.200012l-0.200001,-0.299988l-1,-0.5l-1,-0.5l-0.200001,-0.299988l-0.299999,-0.200012l-0.5,1l-0.5,1l0,20q0,20 3,31q3,11 6.700001,13.200012q3.799999,2.299988 4.799999,2.799988l1,0.5l1,0.5l1,0.5l0,0.299988l0,0.200012l-3,0q-3,0 -3,1.799988q0,1.700012 -1.799999,3.400024q-1.700001,1.799988 -2.200001,2.799988q-0.5,1 0.799999,3q1.200001,2 2.200001,2.200012l1,0.299988l0.200001,0.299988l0.299999,0.200012l0.299999,0.200012l0.200001,0.299988l-0.200001,0.299988l-0.299999,0.200012l-0.299999,0.200012l-0.200001,0.299988l-0.5,0l-0.5,0l-0.200001,-0.299988l-0.299999,-0.200012l-0.299999,0.200012l-0.200001,0.299988l-0.5,0l-0.5,0l-0.200001,-0.299988l-0.299999,-0.200012l-0.299999,-0.200012l-0.200001,-0.299988l-0.200001,-0.299988l-0.299999,-0.200012l-0.299999,1l-0.200001,1l-1.5,-0.200012q-1.5,-0.299988 -8.5,-3.299988q-7,-3 -8.2,-5.299988q-1.3,-2.200012 -1.8,-8.200012q-0.5,-6 -2,-20.5q-1.5,-14.5 -2.5,-26.5q-1,-12 -1.5,-24.5q-0.5,-12.5 2.5,-12.5q3,0 -0.7,-30l-3.8,-30l0,-15l0,-15l0.2,0l0.3,0l0.5,-8.5q0.5,-8.5 1.8,-17.299988q1.2,-8.700012 10.2,-9q9,-0.200012 21.799999,-42.200012q12.700001,-42 20.700001,-63.5q8,-21.5 15.5,-37q7.5,-15.5 11.5,-22.5q4,-7 5.300003,-9.199997l1.199997,-2.300003l0.199997,-0.300003l0.300003,-0.199997l0.300003,-1l0.199997,-1l1,0q1,0 2,-1.199997q1,-1.300003 1.5,0q0.5,1.199997 1.5,1.199997q1,0 1.199997,1.5zm27,58.700012q0.300003,-0.200012 0.600006,0q0.199997,0.299988 -0.300003,0.299988l-0.5,0l0.199997,-0.299988z"/>
  <path id="svg_17" fill="#000000" fill-rule="evenodd" stroke="#CDCCCD" stroke-width="0.5px" d="m440,623.200012l1,-0.200012l0,1q0,1 -1,1.200012q-1,0.299988 -1.200012,0.599976l-0.299988,0.200012l-0.299988,0.200012l-0.200012,0.299988l-0.200012,0.299988l-0.299988,0.200012l-0.299988,0.200012l-0.200012,0.299988l-0.200012,0.299988l-0.299988,0.200012l-0.299988,0.200012l-0.200012,0.299988l-0.200012,0.299988l-0.299988,0.200012l-0.299988,0.200012l-0.200012,0.299988l-0.200012,0.299988l-0.299988,0.200012l-0.299988,0.200012l-0.200012,0.299988l-0.200012,0.299988l-0.299988,0.200012l-0.299988,0.200012l-0.200012,0.299988l-9.799988,11.299988q-9.700012,11.200012 -16.700012,23.200012q-7,12 -10.5,23.5q-3.5,11.5 -3.799988,14.5q-0.200012,3 -11.700012,5.799988q-11.5,2.700012 -19.299988,8q-7.700012,5.200012 -10,8q-2.200012,2.700012 -2.400024,3l-0.299988,0.200012l-0.5,1l-0.5,1l-0.5,1l-0.5,1l-0.5,1l-0.5,1l-0.299988,1l-0.200012,1l4.5,0.200012q4.5,0.299988 11.5,0.799988l7,0.5l-0.200012,0.299988l-0.299988,0.200012l-0.299988,0.200012l-0.200012,0.299988l-2,0.5l-2,0.5l-12,4.5q-12,4.5 -17.5,9q-5.5,4.5 -9.299988,12.799988q-3.700012,8.200012 -5.700012,18.700012q-2,10.5 -2.5,14.5l-0.5,4l-0.299988,3l-0.200012,3l1,-0.200012l1,-0.299988l0.200012,-0.299988l0.299988,-0.200012l0.299988,-0.200012l0.200012,-0.299988l1,-0.5l1,-0.5l1,-0.5l1,-0.5l14,-8.5q14,-8.5 20.5,-10.5q6.5,-2 43.5,-2q37,0 52.5,-4q15.5,-4 16.5,-4.5q1,-0.5 2.5,-1l1.5,-0.5l1,-0.5l1,-0.5l1,-0.5l1,-0.5l1,-0.5l1,-0.5l1,0l1,0l-0.200012,0.299988l-0.299988,0.200012l-0.299988,0.200012l-0.200012,0.299988l-0.200012,0.299988l-0.299988,0.200012l-0.299988,0.200012l-0.200012,0.299988l-0.200012,0.299988l-0.299988,0.200012l-0.299988,0.200012l-0.200012,0.299988l-0.200012,0.299988l-0.299988,0.200012l-0.299988,0.200012l-0.200012,0.299988l-0.200012,0.299988l-0.299988,0.200012l-0.299988,0.200012l-0.200012,0.299988l-0.200012,0.299988l-0.299988,0.200012l-2.5,3q-2.5,3 -3,4l-0.5,1l-0.299988,0.200012l-0.200012,0.299988l-0.200012,0.299988l-0.299988,0.200012l-0.299988,0.200012l-0.200012,0.299988l-0.200012,0.299988l-0.299988,0.200012l-0.299988,0.200012l-0.200012,0.299988l-0.200012,0.299988l-0.299988,0.200012l-0.299988,0.200012l-0.200012,0.299988l-0.200012,0.299988l-0.299988,0.200012l-0.299988,0.200012l-0.200012,0.299988l-0.200012,0.299988l-0.299988,0.200012l0,1l0,1l0.299988,-0.200012l0.200012,-0.299988l1,-0.5l1,-0.5l1,-0.5l1,-0.5l1,-0.5l1,-0.5l19.5,-7.5q19.5,-7.5 33,-10q13.5,-2.5 35,-2q21.5,0.5 30.5,1l9,0.5l-1,0.5l-1,0.5l-1,0.5l-1,0.5l-1,0.5l-1,0.5l-1,0.5l-1,0.5l-16.5,10q-16.5,10 -25.700012,19.299988q-9.299988,9.200012 -9.799988,10.200012l-0.5,1l-0.299988,0.200012l-0.200012,0.299988l-0.200012,0.299988l-0.299988,0.200012l-0.5,1l-0.5,1l-0.299988,0.200012l-0.200012,0.299988l0.200012,0.299988l0.299988,0.200012l0.299988,0.200012l0.200012,0.299988l1,0.5l1,0.5l9,3.5q9,3.5 14.5,4.5q5.5,1 22,1l16.5,0l-0.200012,-0.299988l-0.299988,-0.200012l-0.299988,-0.200012l-0.200012,-0.299988l-1.5,-0.5l-1.5,-0.5l-1,-0.5l-1,-0.5l-6,-3.5q-6,-3.5 -7.799988,-5.799988q-1.700012,-2.200012 -1.200012,-6.700012q0.5,-4.5 5.200012,-9.700012q4.799988,-5.299988 14.799988,-9.799988q10,-4.5 21,-6.5q11,-2 25.5,-1.5q14.5,0.5 17.299988,3.200012q2.700012,2.799988 2.700012,10.299988q0,7.5 -1.5,10.5q-1.5,3 -2,4l-0.5,1l-0.299988,0.200012l-0.200012,0.299988l-0.200012,0.299988l-0.299988,0.200012l-0.5,1l-0.5,1l-0.5,1l-0.5,1l-0.299988,0.200012l-0.200012,0.299988l-0.200012,0.299988l-0.299988,0.200012l-0.299988,0.200012l-0.200012,0.299988l1,0l1,0l0.200012,-0.299988l0.299988,-0.200012l0.299988,-0.200012l0.200012,-0.299988l0.200012,-0.299988l0.299988,-0.200012l0.299988,-0.200012l0.200012,-0.299988l0.200012,-0.299988l0.299988,-0.200012l0.299988,-0.200012l0.200012,-0.299988l0.200012,-0.299988l0.299988,-0.200012l0.299988,-0.200012l0.200012,-0.299988l0.200012,-0.299988l0.299988,-0.200012l0.299988,-0.200012l0.200012,-0.299988l0.200012,-0.299988l0.299988,-0.200012l0.299988,-0.200012q0.200012,-0.299988 2.700012,-2.799988q2.5,-2.5 10.700012,-12.200012l8.299988,-9.799988l0.5,-1l0.5,-1l0.299988,-1l0.200012,-1l0.200012,0l0.299988,0l0.5,1l0.5,1l0.299988,0.200012l0.200012,0.299988l0.5,0l0.5,0l0.200012,-0.299988l0.299988,-0.200012l0.299988,0.200012l0.200012,0.299988l0.5,0l0.5,0l0.200012,-0.299988l0.299988,-0.200012l0.299988,0l0.200012,0l-0.200012,1l-0.299988,1l-0.5,1l-0.5,1l-1.700012,2.799988q-1.799988,2.700012 -2,3l-0.299988,0.200012l-0.5,1l-0.5,1l-0.299988,0.200012l-0.200012,0.299988l-0.200012,0.299988l-0.299988,0.200012l-0.299988,0.200012l-0.200012,0.299988l-0.200012,0.299988l-0.299988,0.200012l-0.299988,0.200012l-0.200012,0.299988l-0.200012,0.299988l-0.299988,0.200012l-0.299988,0.200012l-0.200012,0.299988l-0.200012,0.299988l-0.299988,0.200012l-0.299988,0.200012l-0.200012,0.299988l1,0l1,0l0.200012,-0.299988l0.299988,-0.200012l0.299988,0l0.200012,0l1.200012,0.5q1.299988,0.5 1.599976,-0.5q0.200012,-1 1.200012,-1.200012l1,-0.299988l0.200012,-0.299988l0.299988,-0.200012l0.299988,0.200012l0.200012,0.299988l0.200012,0.299988l0.299988,0.200012l0.299988,1l0.200012,1l-1.5,0.200012l-1.5,0.299988l1,0.5l1,0.5l-1,0.299988l-1,0.200012l0.200012,1l0.299988,1l0.299988,0.200012l0.200012,0.299988l-1,0.299988q-1,0.200012 -1,1.200012q0,1 -1,0.799988q-1,-0.299988 -1.799988,1q-0.700012,1.200012 -2.200012,2.200012q-1.5,1 -4.200012,1.799988l-2.799988,0.700012l-0.200012,0.299988l-0.299988,0.200012l-0.299988,0.200012l-0.200012,0.299988l-0.200012,0.299988l-0.299988,0.200012l-0.299988,0.200012l-0.200012,0.299988l1,0.5l1,0.5l0.200012,0.299988l0.299988,0.200012l0.5,1l0.5,1l0.299988,0.5l0.200012,0.5l-1,0.200012q-1,0.299988 -2.5,1.299988q-1.5,1 -6,2.700012q-4.5,1.799988 -4.700012,2.799988q-0.299988,1 -12,8.200012l-11.799988,7.299988l-0.5,0l-0.5,0l-0.200012,-0.299988l-0.299988,-0.200012l-0.299988,0.200012l-0.200012,0.299988l-0.200012,0.299988l-0.299988,0.200012l-0.299988,0.200012l-0.200012,0.299988l-1,0.5l-1,0.5l-0.200012,0.299988l-0.299988,0.200012l-0.299988,1l-0.200012,1l-1.5,-0.200012l-1.5,-0.299988l0.200012,-0.299988l0.299988,-0.200012l0.299988,-0.200012l0.200012,-0.299988l0.200012,-0.299988l0.299988,-0.200012l0.299988,-0.200012l0.200012,-0.299988l0.200012,-0.299988l0.299988,-0.200012l0.299988,-0.200012l0.200012,-0.299988l-0.200012,-0.299988l-0.299988,-0.200012l0,-1l0,-1l0.5,-2.5q0.5,-2.5 2.5,-9q2,-6.5 3.700012,-13q1.799988,-6.5 2.799988,-6.700012q1,-0.299988 1,-3q0,-2.799988 1,-2.799988l1,0l-0.200012,-1l-0.299988,-1l-0.299988,-0.200012l-0.200012,-0.299988l0.200012,-0.299988l0.299988,-0.200012l0.299988,-0.200012l0.200012,-0.299988l-1,-0.5l-1,-0.5l-2,0l-2,0l-1.5,0.5q-1.5,0.5 -3,0.5q-1.5,0 -2.299988,0.700012q-0.700012,0.799988 -4.400024,1q-3.799988,0.299988 -11.799988,2.299988l-8,2l-2.5,0.299988l-2.5,0.200012l0.200012,1l0.299988,1l0.299988,0.200012l0.200012,0.299988l0.200012,0.299988l0.299988,0.200012l0.299988,0.200012l0.200012,0.299988l0.200012,0.299988l0.299988,0.200012l0.299988,0.200012l0.200012,0.299988l0.200012,0.299988l0.299988,0.200012l0.299988,0.200012l0.200012,0.299988l1,0.299988q1,0.200012 1.5,1.400024q0.5,1.299988 2.5,3.299988q2,2 5.200012,4.299988q3.299988,2.200012 3.599976,3.200012q0.200012,1 1.200012,1q1,0 1.200012,1q0.299988,1 0.599976,1.200012l0.200012,0.299988l0.200012,0.299988l0.299988,0.200012l0.299988,0.200012l0.200012,0.299988l0.200012,0.299988l0.299988,0.200012l0.299988,0.200012l0.200012,0.299988l0.200012,0.299988l0.299988,0.200012l0.299988,0.200012l0.200012,0.299988l0.200012,0.299988l0.299988,0.200012l0.299988,0.200012l0.200012,0.299988l-1,0.5l-1,0.5l-0.200012,0.299988l-0.299988,0.200012l-0.299988,0.200012l-0.200012,0.299988l-1,0l-1,0l-0.200012,-0.299988l-0.299988,-0.200012l-0.299988,0.200012q-0.200012,0.299988 -12.700012,3.799988q-12.5,3.5 -29,3.5q-16.5,0 -24,-1q-7.5,-1 -30.5,-9.299988l-23,-8.200012l0.200012,-1l0.299988,-1l0.299988,0.200012l0.200012,0.299988l0.200012,0.299988l0.299988,0.200012l0,-1.5l0,-1.5l-0.299988,-0.200012l-0.200012,-0.299988l0.200012,-0.299988l0.299988,-0.200012l0.299988,-0.200012q0.200012,-0.299988 8.200012,-9.299988l8,-9l0.200012,-0.299988l0.299988,-0.200012l0.299988,-0.200012l0.200012,-0.299988l0.200012,-0.299988l0.299988,-0.200012l0.299988,-0.200012l0.200012,-0.299988l0.200012,-0.299988l0.299988,-0.200012l0.299988,-0.200012l0.200012,-0.299988l0.200012,-0.299988l0.299988,-0.200012l0.299988,-0.200012l0.200012,-0.299988l0.200012,-0.299988l0.299988,-0.200012l0.299988,-0.200012l0.200012,-0.299988l0.200012,-0.299988l0.299988,-0.200012l0.299988,-0.200012l0.200012,-0.299988l-1.5,0l-1.5,0l-1.5,0.5l-1.5,0.5l-20.5,5q-20.5,5 -29.299988,7.299988q-8.700012,2.200012 -25.400024,6.400024q-16.799988,4.299988 -19.799988,5.299988q-3,1 -3.5,1.700012q-0.5,0.799988 -3.5,0.799988q-3,0 -3,1q0,1 -1.5,0.799988q-1.5,-0.299988 -6,0.400024q-4.5,0.799988 -4.5,1.799988q0,1 -3.200012,1q-3.299988,0 -13.599976,3.799988q-10.200012,3.700012 -17.200012,8.200012q-7,4.5 -8.799988,10.799988q-1.700012,6.200012 -2.200012,10.200012q-0.5,4 0,7.5q0.5,3.5 1.5,7.5q1,4 1.5,5l0.5,1l0.299988,1l0.200012,1l-1.5,0.200012l-1.5,0.299988l-1,0l-1,0l-0.200012,-0.299988q-0.299988,-0.200012 -3.599976,0.599976q-3.200012,0.700012 -11.400024,-1q-8.299988,-1.799988 -13,-4.299988q-4.799988,-2.5 -4.799988,-3.5q0,-1 -1,-1q-1,0 -1,-1q0,-1 -2,-1.200012q-2,-0.299988 -8.200012,-7l-6.299988,-6.799988l-0.299988,-0.200012l-0.200012,-0.299988l-0.200012,-0.299988l-0.299988,-0.200012l-0.5,-1l-0.5,-1l-0.299988,-0.200012l-0.200012,-0.299988l-0.200012,-0.299988l-0.299988,-0.200012l-0.299988,0.200012l-0.200012,0.299988l-0.200012,0.299988l-0.299988,0.200012l-0.299988,0.200012l-0.200012,0.299988l0.200012,0.299988l0.299988,0.200012l-1,16q-1,16 -0.5,17q0.5,1 0.799988,2.5l0.200012,1.5l-0.200012,0l-0.299988,0l-0.5,-1q-0.5,-1 -1,2.5l-0.5,3.5l-0.299988,-0.200012l-0.200012,-0.299988l-0.200012,-0.299988l-0.299988,-0.200012l0,-2q0,-2 0,-3l0,-1l-0.299988,-0.200012l-0.200012,-0.299988l-0.200012,-0.299988l-0.299988,-0.200012l-1,9.5q-1,9.5 -0.700012,10.5q0.200012,1 -0.799988,1q-1,0 -1,-1.5q0,-1.5 -0.799988,-1q-0.700012,0.5 -0.700012,3l0,2.5l-0.299988,0.200012l-0.200012,0.299988l-0.200012,0.299988l-0.299988,0.200012l-0.5,-1l-0.5,-1l-0.5,1l-0.5,1l-0.5,-1l-0.5,-1l-0.299988,-0.200012l-0.200012,-0.299988l-0.200012,-0.299988l-0.299988,-0.200012l-0.299988,0l-0.200012,0l-0.200012,-3q-0.299988,-3 -0.799988,-20q-0.5,-17 1.5,-38.5q2,-21.5 7,-44q5,-22.5 14,-39.5q9,-17 21,-32q12,-15 27.299988,-28.799988q15.200012,-13.700012 21.400024,-23.400024q6.299988,-9.799988 16,-22q9.799988,-12.299988 22.299988,-22.799988l12.5,-10.5l0.200012,-0.299988l0.299988,-0.200012l0.299988,-0.200012l0.200012,-0.299988l1,-0.5l1,-0.5l0.200012,-0.299988l0.299988,-0.200012l0.299988,-0.200012l0.200012,-0.299988l1,-0.5l1,-0.5l0.200012,-0.299988l0.299988,-0.200012l0.299988,-0.200012l0.200012,-0.299988l0.200012,-0.299988l0.299988,-0.200012l0.299988,-0.200012q0.200012,-0.299988 1.200012,-0.599976zm-97.5,231.799988l0,9l0.5,2l0.5,2l0.299988,1l0.200012,1l-1,0l-1,0l-0.200012,-1l-0.299988,-1l-0.299988,-0.200012l-0.200012,-0.299988l-0.200012,-0.299988l-0.299988,-0.200012l-0.5,-1l-0.5,-1l-0.299988,-0.200012l-0.200012,-0.299988l-0.200012,-0.299988l-0.299988,-0.200012l-0.299988,-0.200012l-0.200012,-0.299988l-14.200012,-18.700012q-14.299988,-18.799988 -13,-21q1.200012,-2.299988 8.700012,-8.799988q7.5,-6.5 16.5,-10.5q9,-4 24,-6.5q15,-2.5 50.5,-3.5q35.5,-1 38.5,-1q3,0 -4,4q-7,4 -41,13q-34,9 -42,13.5q-8,4.5 -11.799988,8.200012q-3.700012,3.799988 -5.700012,8.799988q-2,5 -2,14z"/>
  <path id="svg_18" fill="#000000" fill-rule="evenodd" stroke="#ffffff" stroke-width="0.5px" d="m466,574l2,0.5l1,0.5l1,0.5l2,0.5l2,0.5l1,0.5l1,0.5l-2,0.5l-2,0.5l-1.5,0.5l-1.5,0.5l-10.5,0.5q-10.5,0.5 -26.5,-1q-16,-1.5 -39.5,11l-23.5,12.5l-1,0.5l-1,0.5l-1,0.5l-1,0.5l-1,0.5l-1,0.5l-1.5,0l-1.5,0l1,-0.5l1,-0.5l0.200012,-0.299988l0.299988,-0.200012l0.299988,-0.200012l0.200012,-0.299988l0.200012,-0.299988l0.299988,-0.200012l0.299988,-0.200012l0.200012,-0.299988l1,-0.5l1,-0.5l0.200012,-0.299988l0.299988,-0.200012l0.299988,-0.200012l0.200012,-0.299988l0.200012,-0.299988l0.299988,-0.200012l3.299988,-2q3.200012,-2 6.700012,-5.799988q3.5,-3.700012 16.5,-14.200012q13,-10.5 16.799988,-15.799988q3.700012,-5.200012 4.700012,-10.200012q1,-5 -2.5,-21.5q-3.5,-16.5 -8,-32.5q-4.5,-16 -9,-46q-4.5,-30 -4.200012,-31.799988q0.200012,-1.700012 12,43q11.700012,44.799988 18.700012,62.299988q7,17.5 11.299988,24.700012q4.200012,7.299988 8.200012,11.299988q4,4 13,8q9,4 11,4.5z"/>
  <path id="svg_20" fill="#000000" fill-rule="evenodd" stroke="#C6C6C7" stroke-width="0.5px" d="m298.200012,901.200012l1.299988,-9.200012l0.299988,0.200012l0.200012,0.299988l0.200012,0.299988l0.299988,0.200012l0,1q0,1 0,3l0,2l0.299988,0.200012l0.200012,0.299988l0.200012,0.299988l0.299988,0.200012l0.5,-3.5q0.5,-3.5 1,-2.5l0.5,1l0.299988,0l0.200012,0l0.799988,10q0.700012,10 1.200012,12.5q0.5,2.5 0.799988,8.299988q0.200012,5.700012 1,6.400024q0.700012,0.799988 0.400024,2.799988q-0.200012,2 0.799988,2q1,0 1.5,4.200012q0.5,4.299988 -0.5,4.799988q-1,0.5 -0.200012,1.200012q0.700012,0.799988 1.400024,4q0.799988,3.299988 1.599976,4.599976q0.700012,1.200012 0.400024,2.700012q-0.200012,1.5 0.799988,1.5q1,0 3,9.200012q2,9.299988 2.799988,11.599976q0.700012,2.200012 6.700012,18.700012q6,16.5 13.299988,32.300049q7.200012,15.699951 17.200012,34.199951q10,18.5 22,37.5q12,19 12.200012,19.300049l0.299988,0.199951l0.299988,0.199951l0.200012,0.300049l0.200012,0.300049l0.299988,0.199951l0.299988,0.199951l0.200012,0.300049l0.200012,0.300049l0.299988,0.199951l0.5,1l0.5,1l0.299988,0.199951l0.200012,0.300049l0.200012,0.300049l0.299988,0.199951l0.299988,1l0.200012,1l-0.200012,0l-0.299988,0l-0.299988,0.199951l-0.200012,0.300049l-0.5,0l-0.5,0l-1,-0.5l-1,-0.5l-1,-0.5l-1,-0.5l-1,-0.5l-1,-0.5l-2,-0.5q-2,-0.5 -3.5,-1q-1.5,-0.5 -17.5,-7q-16,-6.5 -32.5,-16.5q-16.5,-10 -20.5,-12.300049q-4,-2.199951 -4.200012,-3.199951q-0.299988,-1 -6,-4.5q-5.799988,-3.5 -5.799988,-4.5q0,-1 -1,-1.199951q-1,-0.300049 -1.5,-1.600098q-0.5,-1.199951 -2,-1.399902q-1.5,-0.300049 -2.5,-2q-1,-1.800049 -3.5,-2.300049q-2.5,-0.5 -2.700012,-1.5q-0.299988,-1 -14.299988,-15q-14,-14 -14.5,-15q-0.5,-1 -1.800003,-1.800049q-1.199997,-0.699951 -2.399994,-2.399902q-1.300003,-1.800049 -3,-4q-1.800003,-2.300049 -2.600006,-3q-0.699997,-0.800049 -3,-3.800049q-2.199997,-3 -3.199997,-3q-1,0 -1.5,-1.200012l-0.5,-1.299988l-0.199997,-0.299988l-0.300003,-0.200012l-0.300003,-0.200012l-0.199997,-0.299988l-0.199997,-0.299988l-0.300003,-0.200012l-0.5,-1l-0.5,-1l-0.5,1.5l-0.5,1.5l-1,2.5q-1,2.5 -1.5,3.5l-0.5,1l-0.300003,0.199951l-0.199997,0.300049l-0.5,0l-0.5,0l-0.199997,-0.300049l-0.300003,-0.199951l-0.300003,-0.200012l-0.199997,-0.299988l-1,-0.5q-1,-0.5 -3,-1.200012q-2,-0.799988 -2.199997,-1.799988q-0.300003,-1 -3,-2.5q-2.800003,-1.5 -2.800003,-3q0,-1.5 -1.5,-1.5q-1.5,0 -1.699997,-1q-0.300003,-1 -2.600006,-2.200012q-2.199997,-1.299988 -2.699997,-2.599976q-0.5,-1.200012 -2.5,-2.400024q-2,-1.299988 -4.199997,-3.599976q-2.300003,-2.200012 -3.600006,-2.700012q-1.199997,-0.5 -2,-2q-0.699997,-1.5 -2.399994,-2q-1.800003,-0.5 -1.800003,-1.5q0,-1 -1,-1.200012q-1,-0.299988 -1.800003,-2q-0.699997,-1.799988 -2,-2.599976q-1.199997,-0.700012 -1.699997,-2q-0.5,-1.200012 -2,-1.200012q-1.5,0 -2.300003,-2q-0.699997,-2 -3,-3.799988q-2.199997,-1.700012 -4.399994,-5q-2.300003,-3.200012 -3,-4q-0.800003,-0.700012 -2,-3q-1.300003,-2.200012 -2,-2q-0.800003,0.299988 -1.800003,-2.400024q-1,-2.799988 -2.5,-3q-1.5,-0.299988 -2.5,-2q-1,-1.799988 -2,-1.799988q-1,0 -1.199997,-1q-0.300003,-1 -3.600006,-6.200012q-3.199997,-5.299988 -3.199997,-7.599976q0,-2.200012 -1.5,-2.400024q-1.5,-0.299988 -2.300003,-2.599976l-0.699997,-2.200012l0.300003,-0.200012l0.199997,-0.299988l-1,-0.5l-1,-0.5l-1,-0.299988l-1,-0.200012l0,-1l0,-1l0,-0.200012l0,-0.299988l2,0l2,0l0.199997,0.299988l0.300003,0.200012l0.300003,0.200012l0.199997,0.299988l0.199997,0.299988l0.300003,0.200012l0.300003,0.200012l0.199997,0.299988l0.199997,0.299988l0.300003,0.200012l2.300003,1.799988q2.199997,1.700012 3.699997,2q1.5,0.200012 2,1.400024q0.5,1.299988 0.699997,1.599976l0.300003,0.200012l0.300003,0.200012l0.199997,0.299988l0.199997,0.299988l0.300003,0.200012l0.300003,0.200012l0.199997,0.299988l0.199997,0.299988l0.300003,0.200012l0,-1l0,-1l-0.300003,-0.200012l-0.199997,-0.299988l1,0l1,0l1,0l1,0l-0.199997,-0.299988l-0.300003,-0.200012l-0.300003,-1.5q-0.199997,-1.5 0.800003,-1.5q1,0 0.199997,-2.5l-0.699997,-2.5l-0.300003,-1.5l-0.199997,-1.5l0.199997,0l0.300003,0l0.5,1l0.5,1l0.300003,0.200012l0.199997,0.299988l0.199997,0.299988l0.300003,0.200012l0.5,1l0.5,1l0.300003,0.200012l0.199997,0.299988l0.199997,0.299988l0.300003,0.200012l14.699997,17.799988q14.800003,17.700012 22.800003,25.700012q8,8 9,8.5l1,0.5l0.199997,0.299988l0.300003,0.200012l0.300003,0.200012l0.199997,0.299988l0.199997,0.299988l0.300003,0.200012l0.300003,0.200012l0.199997,0.299988l0.199997,0.299988l0.300003,0.200012l0.300003,0.200012l0.199997,0.299988l0.199997,0.299988l0.300003,0.200012l0.300003,0.200012l0.199997,0.299988l0.199997,0.299988l0.300003,0.200012l0.300003,0.200012l0.199997,0.299988l0.199997,0.299988l0.300003,0.200012l0,-1l0,-1l-0.5,-1.5l-0.5,-1.5l-0.5,-1l-0.5,-1l-0.5,-1.5q-0.5,-1.5 -3.5,-13.5q-3,-12 -3,-36l0,-24l0.5,2.5l0.5,2.5l5,18q5,18 13,35q8,17 20,34q12,17 29.700012,34.800049q17.799988,17.699951 40.299988,34.199951q22.5,16.5 26.700012,19.199951q4.299988,2.800049 4.599976,3l0.200012,0.300049l1,0.5l1,0.5l0.200012,0.300049l0.299988,0.199951l0.299988,0.199951l0.200012,0.300049l1,0.5l1,0.5l0.200012,0.300049l0.299988,0.199951l0.299988,0.199951l0.200012,0.300049l0.5,0l0.5,0l0.200012,-0.300049l0.299988,-0.199951l0.299988,-0.199951l0.200012,-0.300049l-0.200012,-0.300049l-0.299988,-0.199951l-0.299988,-0.199951l-0.200012,-0.300049l-0.200012,-0.300049l-0.299988,-0.199951l-0.5,-1l-0.5,-1l-0.5,-1l-0.5,-1l-0.5,-1q-0.5,-1 -6.799988,-11.800049q-6.200012,-10.699951 -19,-37q-12.700012,-26.199951 -21.200012,-51.699951q-8.5,-25.5 -12.799988,-49.5l-4.200012,-24l0.200012,0l0.299988,0l0.299988,0.200012l0.200012,0.299988l0.200012,0.299988l0.299988,0.200012l0.5,1l0.5,1l0.299988,-1.5q0.200012,-1.5 1.200012,-1.299988q1,0.299988 1.200012,-1.400024q0.299988,-1.799988 1.599976,-2q1.200012,-0.299988 2.400024,-9.599976zm-5,15q0.299988,-0.200012 0.599976,0l0.200012,0.299988l-0.5,0q-0.5,0 -0.299988,-0.299988zm-134.000015,27.299988q0.300003,-1.5 1,0q0.800003,1.5 -0.199997,1.5q-1,0 -0.800003,-1.5z"/>
  <path id="svg_21" fill="#000000" fill-rule="evenodd" stroke="#C8C3C4" stroke-width="0.5px" d="m558,635.5l0.5,-1.5l0.5,1l0.5,1l0.5,1l0.5,1l0.5,1l0.5,1l5.299988,9.200012q5.200012,9.299988 22.200012,6.299988q17,-3 18,-3.299988l1,-0.200012l0,0.200012l0,0.299988l2,0.299988l2,0.200012l0,2l0,2l-0.200012,0q-0.299988,0 -20.599976,4.799988q-20.200012,4.700012 -24.400024,-2l-4.299988,-6.799988l-0.5,-1l-0.5,-1l-0.299988,-0.200012l-0.200012,-0.299988l-0.200012,-0.299988l-0.299988,-0.200012l-0.5,1l-0.5,1l-0.5,1.5l-0.5,1.5l-6.299988,9.799988q-6.200012,9.700012 -13.700012,15.700012q-7.5,6 -10,6.700012q-2.5,0.799988 -8.5,12.599976q-6,11.700012 -13,21.200012q-7,9.5 -7.200012,9.799988l-0.299988,0.200012l-0.299988,0.200012l-0.200012,0.299988l-0.200012,0.299988l-0.299988,0.200012l-0.299988,0.200012l-0.200012,0.299988l-0.200012,0.299988l-0.299988,0.200012l-0.299988,0.200012l-0.200012,0.299988l-0.200012,0.299988l-0.299988,0.200012l-0.299988,0.200012l-0.200012,0.299988l0.5,0.5q0.5,0.5 1,0.5l0.5,0l0.200012,-0.299988l0.299988,-0.200012l0.299988,-0.200012l0.200012,-0.299988l1,-0.5l1,-0.5l0.200012,-0.299988l0.299988,-0.200012l0.299988,-0.200012q0.200012,-0.299988 0.400024,-0.599976l0.299988,-0.200012l0.299988,-0.200012l0.200012,-0.299988l21.5,-13q21.5,-13 47,-25q25.5,-12 54.5,-22.5q29,-10.5 40.5,-11.5q11.5,-1 29.5,-0.5q18,0.5 25,2q7,1.5 9,2l2,0.5l1,0.5l1,0.5l0.200012,0.299988l0.299988,0.200012l0,1.5l0,1.5l-2,4.5q-2,4.5 -2.5,5.5l-0.5,1l-0.299988,0.200012l-0.200012,0.299988l-0.200012,0.299988l-0.299988,0.200012l-0.299988,0.200012l-0.200012,0.299988l-0.200012,0.299988l-0.299988,0.200012l-0.299988,0.200012l-0.200012,0.299988l-0.200012,0.299988l-0.299988,0.200012l-0.299988,0.200012l-0.200012,0.299988l2,0l2,0l1.5,-0.5l1.5,-0.5l1,-0.5l1,-0.5l3,-2q3,-2 3.5,-2.299988l0.5,-0.200012l0,0.200012l0,0.299988l2.200012,0.299988q2.299988,0.200012 3.599976,0.700012q1.200012,0.5 0.200012,2.299988q-1,1.700012 0.799988,1.400024q1.700012,-0.200012 2,1.299988q0.200012,1.5 1.700012,1.299988l1.5,-0.299988l0.200012,-0.299988l0.299988,-0.200012l0.299988,0.200012l0.200012,0.299988l0.200012,0.299988l0.299988,0.200012l0.299988,-0.200012l0.200012,-0.299988l1,-0.299988l1,-0.200012l0,1l0,1l-1.5,0.200012l-1.5,0.299988l-0.200012,0.299988l-0.299988,0.200012l-0.299988,0.200012l-0.200012,0.299988l-0.200012,0.299988l-0.299988,0.200012l-0.299988,0.200012l-0.200012,0.299988l-1,0.5q-1,0.5 -5.5,2.200012q-4.5,1.799988 -4.700012,2.799988q-0.299988,1 -10,5.200012q-9.799988,4.299988 -14.799988,5.799988q-5,1.5 -6,2l-1,0.5l-1,0l-1,0l-0.200012,-0.299988l-0.299988,-0.200012l-0.299988,0.200012l-0.200012,0.299988l-0.200012,0.299988l-0.299988,0.200012l-0.299988,-0.200012l-0.200012,-0.299988l-1,-0.5l-1,-0.5l-0.200012,-0.299988l-0.299988,-0.200012l0,-5q0,-5 3,-11l3,-6l0.5,-1l0.5,-1l0.299988,-0.200012l0.200012,-0.299988l-1.5,-0.5l-1.5,-0.5l-2.5,-0.5q-2.5,-0.5 -5.5,-0.799988q-3,-0.200012 -3.200012,-1.200012q-0.299988,-1 -16,-0.200012q-15.799988,0.700012 -29.799988,3.700012q-14,3 -22.5,6.5q-8.5,3.5 -28.5,13q-20,9.5 -21,10.799988q-1,1.200012 -7,3.400024q-6,2.299988 -8,3.299988l-2,1l-0.200012,0.299988l-0.299988,0.200012l-0.299988,0.200012l-0.200012,0.299988l-1,0.5l-1,0.5l-1,0.5l-1,0.5l0.200012,0.299988l0.299988,0.200012l0.299988,0.200012l0.200012,0.299988l1.5,0.5l1.5,0.5l1.5,0.5l1.5,0.5l11,3.5q11,3.5 13,3.799988q2,0.200012 2.5,1q0.5,0.700012 10.299988,3q9.700012,2.200012 13,2.700012q3.200012,0.5 3.200012,1.5q0,1 2.5,0.799988q2.5,-0.299988 15,2.700012q12.5,3 17.5,3.299988q5,0.200012 5,1.200012q0,1 2.5,0.799988q2.5,-0.299988 5.5,-0.299988q3,0 24,0.700012q21,0.799988 21.5,1.599976q0.5,0.700012 7.5,2.700012q7,2 12.799988,5.700012q5.700012,3.799988 8.700012,7.799988q3,4 2.700012,5.200012q-0.200012,1.299988 -1.200012,1.599976q-1,0.200012 -2.799988,3.700012q-1.700012,3.5 -3,5.5q-1.200012,2 -2.400024,2.5q-1.299988,0.5 -1.599976,1.5q-0.200012,1 -1.200012,1q-1,0 -2.5,2.799988q-1.5,2.700012 -4,4.400024q-2.5,1.799988 -4.5,4.799988q-2,3 -15,12.200012q-13,9.299988 -14.5,9.599976q-1.5,0.200012 -1.5,1.200012q0,1 -2,1.200012l-2,0.299988l-0.5,0l-0.5,0l-1,-0.5l-1,-0.5l-1,-0.299988l-1,-0.200012l-0.200012,-0.5l-0.299988,-0.5l-0.5,-1l-0.5,-1l-0.299988,-0.200012l-0.200012,-0.299988l-1,-0.5l-1,-0.5l0.200012,-0.299988l0.299988,-0.200012l0.299988,-0.200012l0.200012,-0.299988l0.200012,-0.299988l0.299988,-0.200012l0.299988,-0.200012l0.200012,-0.299988l1.5,-0.299988q1.5,-0.200012 1.5,-1.200012q0,-1 2.799988,-1.5q2.700012,-0.5 3.400024,-1.700012q0.799988,-1.299988 1.799988,-1q1,0.200012 1,-0.799988q0,-1 1,-1.200012l1,-0.299988l-0.200012,-0.299988l-0.299988,-0.200012l-0.299988,-0.200012q-0.200012,-0.299988 -1.200012,-0.599976q-1,-0.200012 -1,-2.200012q0,-2 -1,-2l-1,0l0,-0.200012l0,-0.299988l1,-0.5l1,-0.5l0.200012,-0.299988l0.299988,-0.200012l0.299988,-0.200012l0.200012,-0.299988l0.200012,-0.299988l0.299988,-0.200012l0.299988,-0.200012l0.200012,-0.299988l1,-0.5q1,-0.5 4.5,-3.5q3.5,-3 10.700012,-10.700012l7.299988,-7.799988l0.5,-1l0.5,-1l0.299988,-0.200012l0.200012,-0.299988l0.200012,-0.299988l0.299988,-0.200012l0.299988,-1l0.200012,-1l-1,-0.200012l-1,-0.299988l-1,-0.5l-1,-0.5l-0.200012,-0.299988l-0.299988,-0.200012l-0.299988,-0.200012l-0.200012,-0.299988l-1.5,-0.5q-1.5,-0.5 -2.5,-1q-1,-0.5 -12,-2.5l-11,-2l-2,0l-2,0l1,0.5l1,0.5l1,0.5l1,0.5l1,0.5l1,0.5l3,1.700012q3,1.799988 4.200012,4.299988q1.299988,2.5 1.799988,4.5l0.5,2l0,1l0,1l-0.5,2.5l-0.5,2.5l-0.299988,0.5l-0.200012,0.5l-0.200012,0l-0.299988,0l-0.299988,0.200012l-0.200012,0.299988l-0.5,0l-0.5,0l-0.200012,-0.299988l-0.299988,-0.200012l-0.299988,0.200012l-0.200012,0.299988l-0.5,0l-0.5,0l-0.200012,-0.299988l-0.299988,-0.200012l-0.5,-1l-0.5,-1l-0.299988,0l-0.200012,0l0.200012,-0.5l0.299988,-0.5l0,-4l0,-4l-0.299988,-0.200012q-0.200012,-0.299988 -0.700012,-1.599976q-0.5,-1.200012 -69.5,-18.400024q-69,-17.299988 -81.5,-19.799988q-12.5,-2.5 -42.5,6.5l-30,9l-1.5,0.5l-1.5,0.5l-1.5,0.5l-1.5,0.5l-1.5,0l-1.5,0l0.200012,-0.299988l0.299988,-0.200012l0.299988,-0.200012l0.200012,-0.299988l1,-0.5l1,-0.5l1,-0.5l1,-0.5l1,-0.5l1,-0.5l0.200012,-0.299988l0.299988,-0.200012l0.299988,-0.200012q0.200012,-0.299988 9.700012,-6.799988q9.5,-6.5 19.299988,-16.200012q9.700012,-9.799988 15.200012,-18.799988q5.5,-9 6.799988,-17q1.200012,-8 6.700012,-8.799988q5.5,-0.700012 10.700012,-3.400024q5.299988,-2.799988 10.599976,-8.599976q5.200012,-5.700012 10,-17l4.700012,-11.200012l0.5,-2l0.5,-2l0.5,-1.5zm186.200012,44.299988q-0.200012,-0.299988 0,-0.599976q0.299988,-0.200012 0.299988,0.299988q0,0.5 -0.299988,0.299988zm2,0q-0.200012,-0.299988 0,-0.599976q0.299988,-0.200012 0.299988,0.299988q0,0.5 -0.299988,0.299988zm-252,57.400024q0.299988,-0.200012 0.599976,0q0.200012,0.299988 -0.299988,0.299988q-0.5,0 -0.299988,-0.299988zm197,64l0.299988,-0.200012l0.299988,0.200012l0.200012,0.299988l0.200012,0.299988l0.299988,0.200012l0.299988,1l0.200012,1l-1,-0.200012q-1,-0.299988 -1,-1.299988l0,-1l0.200012,-0.299988zm0,4q0.299988,-0.200012 0.599976,0l0.200012,0.299988l-0.5,0q-0.5,0 -0.299988,-0.299988zm-9,10q0.299988,-0.200012 0.599976,0q0.200012,0.299988 -0.299988,0.299988q-0.5,0 -0.299988,-0.299988z"/>
  <path id="svg_22" fill="#000000" fill-rule="evenodd" stroke="#C8C5C7" stroke-width="0.5px" d="m758.200012,683l-0.200012,0l-0.5,0.200012q-0.5,0.299988 -0.5,0.599976l0,0.200012l-1,-0.200012l-1,-0.299988l-0.200012,-0.299988l-0.299988,-0.200012l-0.299988,0.200012l-0.200012,0.299988l-1.5,0.299988q-1.5,0.200012 -1.700012,-1.299988q-0.299988,-1.5 -3,-1.299988l-2.799988,0.299988l-0.200012,-0.299988l-0.299988,-0.200012l-0.299988,-1l-0.200012,-1l1.5,0q1.5,0 1.299988,-1q-0.299988,-1 -2.599976,-1.200012l-2.200012,-0.299988l0,-0.299988l0,-0.200012l0,-0.200012l0,-0.299988l0.200012,-0.299988l0.299988,-0.200012l0.299988,-0.200012q0.200012,-0.299988 1.200012,-0.799988q1,-0.5 8.799988,-9.799988q7.700012,-9.200012 2.700012,-19.200012q-5,-10 -11.700012,-16.799988q-6.799988,-6.700012 -18.299988,-5q-11.5,1.799988 -12.700012,4.299988q-1.299988,2.5 -4.599976,5.700012q-3.200012,3.299988 -8.700012,3.299988q-5.5,0 -10.700012,-4.299988q-5.299988,-4.200012 -5.799988,-9.700012q-0.5,-5.5 -3.799988,-6.299988q-3.200012,-0.700012 -26.700012,-1.200012q-23.5,-0.5 -29,1l-5.5,1.5l-1,0.5l-1,0.5l-1,0.299988l-1,0.200012l0.200012,1l0.299988,1l2.700012,6.200012q2.799988,6.299988 10,12.599976q7.299988,6.200012 7.599976,6.400024l0.200012,0.299988l1,0.5l1,0.5l0.200012,0.299988l0.299988,0.200012l0.299988,0.200012l0.200012,0.299988l1,0.299988l1,0.200012l0,1l0,1l-2,0.200012l-2,0.299988l-2,0.5q-2,0.5 -10,2.5l-8,2l-2,0.299988l-2,0.200012l0,-2l0,-2l-2,-0.200012l-2,-0.299988l0,-0.299988l0,-0.200012l1.5,-0.200012l1.5,-0.299988l2.5,-0.5q2.5,-0.5 5.5,-1l3,-0.5l2.5,-0.5l2.5,-0.5l-0.200012,-0.299988l-0.299988,-0.200012l-0.299988,-0.200012l-0.200012,-0.299988l-1,-0.5l-1,-0.5l-0.200012,-0.299988l-0.299988,-0.200012l-0.299988,-0.200012l-0.200012,-0.299988l-1,-0.5l-1,-0.5l-4.5,-4q-4.5,-4 -6.700012,-8.299988q-2.299988,-4.200012 -2.599976,-11q-0.200012,-6.700012 7.799988,-9.200012q8,-2.5 25,-2.5q17,0 26.5,1q9.5,1 13.5,1.5l4,0.5l0.200012,0.299988l0.299988,0.200012l0,-1l0,-1l-0.299988,-0.200012l-0.200012,-0.299988l-0.200012,-0.299988l-0.299988,-0.200012l-0.5,-1l-0.5,-1l-0.5,-1l-0.5,-1l-0.299988,-0.200012l-0.200012,-0.299988l-0.200012,-0.299988l-0.299988,-0.200012l-0.299988,-0.200012q-0.200012,-0.299988 -4.700012,-4.799988l-4.5,-4.5l-0.200012,-0.299988l-0.299988,-0.200012l-0.299988,-0.200012l-0.200012,-0.299988l-0.200012,-0.299988l-0.299988,-0.200012l-0.299988,-0.200012l-0.200012,-0.299988l-1,-0.5l-1,-0.5l-0.200012,-0.299988l-0.299988,-0.200012l-0.299988,-0.200012l-0.200012,-0.299988l-1,-0.5l-1,-0.5l1.5,0l1.5,0l1,0.5l1,0.5l1,0.5l1,0.5l9.200012,5.700012q9.299988,5.799988 19,13q9.799988,7.299988 13.799988,8.299988q4,1 6.5,0.5q2.5,-0.5 5.5,-1l3,-0.5l2,-0.5l2,-0.5l-0.200012,-0.299988l-0.299988,-0.200012l-0.299988,-0.200012l-0.200012,-0.299988l-0.200012,-0.299988l-0.299988,-0.200012l-0.299988,-0.200012l-0.200012,-0.299988l-0.200012,-0.299988l-0.299988,-0.200012l-0.299988,-0.200012l-0.200012,-0.299988l-0.200012,-0.299988l-0.299988,-0.200012l-0.299988,-0.200012l-0.200012,-0.299988l-0.200012,-0.299988l-0.299988,-0.200012l-0.299988,-0.200012q-0.200012,-0.299988 -11,-14q-10.700012,-13.799988 -57,-24l-46.200012,-10.299988l-2,-0.5l-2,-0.5l0,-0.299988l0,-0.200012l2,0l2,0l0,-1.5l0,-1.5l1,0.200012l1,0.299988l3.5,0.5q3.5,0.5 4.5,0.5l1,0l1.5,0.299988l1.5,0.200012l0,-1l0,-1l-2,0q-2,0 -2.799988,-2q-0.700012,-2 -1,-5l-0.200012,-3l3,-0.5q3,-0.5 3.5,0.299988q0.5,0.700012 2.5,1.200012q2,0.5 3,1q1,0.5 5,1q4,0.5 5.200012,0.799988q1.299988,0.200012 1.799988,1.200012q0.5,1 0.799988,0q0.200012,-1 3.700012,0.200012q3.5,1.299988 7.5,1.299988q4,0 18.5,2.5q14.5,2.5 17.299988,3.200012q2.700012,0.799988 3.400024,0.599976q0.799988,-0.299988 8.299988,1.700012q7.5,2 11.299988,5.299988q3.700012,3.200012 4,4.200012q0.200012,1 1.200012,1q1,0 2,2.5q1,2.5 2,2.5q1,0 3,4.200012q2,4.299988 4.200012,6.599976q2.299988,2.200012 2.599976,3.200012q0.200012,1 4,4.5q3.700012,3.5 8.700012,9q5,5.5 5.299988,6.5q0.200012,1 1.400024,2q1.299988,1 2.599976,3q1.200012,2 3.400024,4q2.299988,2 5.299988,6q3,4 3.700012,5.200012q0.799988,1.299988 3,4q2.299988,2.799988 4.299988,8.299988q2,5.5 0,11.5q-2,6 -6.299988,12.5q-4.200012,6.5 -5.400024,7q-1.299988,0.5 -1.599976,1.5q-0.200012,1 -2.400024,2.5q-2.299988,1.5 -2.599976,1.5zm-136,-130.200012q-0.200012,-0.299988 0,-0.599976q0.299988,-0.200012 0.299988,0.299988q0,0.5 -0.299988,0.299988zm5,6q-0.200012,-0.299988 0,-0.599976q0.299988,-0.200012 0.299988,0.299988l0,0.5l-0.299988,-0.200012zm-13,4q-0.200012,-0.299988 0,-0.599976q0.299988,-0.200012 0.299988,0.299988q0,0.5 -0.299988,0.299988zm2,1q-0.200012,-0.299988 0,-0.599976q0.299988,-0.200012 0.299988,0.299988q0,0.5 -0.299988,0.299988zm131,117q-0.200012,-0.299988 0,-0.599976q0.299988,-0.200012 0.299988,0.299988q0,0.5 -0.299988,0.299988z"/>
  <path id="svg_23" fill="#000000" fill-rule="evenodd" stroke="#E7E7E8" stroke-width="0.5px" d="m36,613l3,0l15.5,5.799988q15.5,5.700012 27,7.700012q11.5,2 26.5,2l15,0l4.5,0q4.5,0 3,0.5l-1.5,0.5l-1,0.5l-1,0.5l-1.5,0.5l-1.5,0.5l-1,0.5l-1,0.5l-7,3.5q-7,3.5 -8,4l-1,0.5l-1.5,0.5l-1.5,0.5l-1,0.5l-1,0.5l-1,0.5l-1,0.5l1,0.5l1,0.5l9,1q9,1 34.5,0.5q25.5,-0.5 56.5,-5.5q31,-5 42,-7.5q11,-2.5 13,-3l2,-0.5l2,-0.5l2,-0.5l2.5,0q2.5,0 1,0.5l-1.5,0.5l-1.5,0.5l-1.5,0.5l-1.5,0.5l-1.5,0.5l-28,14q-28,14 -50.5,29.5q-22.5,15.5 -42,32q-19.5,16.5 -21,18q-1.5,1.5 -1.699997,1.799988l-0.300003,0.200012l-0.300003,0.200012l-0.199997,0.299988l-0.199997,0.299988l-0.300003,0.200012l-0.300003,0.200012l-0.199997,0.299988l-0.199997,0.299988l-0.300003,0.200012l-0.300003,0.200012l-0.199997,0.299988l-0.199997,0.299988l-0.300003,0.200012l-0.300003,0.200012l-0.199997,0.299988l-0.199997,0.299988l-0.300003,0.200012l-0.300003,0.200012l-0.199997,0.299988l-0.199997,0.299988l-0.300003,0.200012l0,1l0,1l0.300003,-0.200012l0.199997,-0.299988l0.199997,-0.299988l0.300003,-0.200012l0.300003,-0.200012l0.199997,-0.299988l2.5,-0.5l2.5,-0.5l2.5,-0.5q2.5,-0.5 12.5,-2.5l10,-2l2.5,-0.5l2.5,-0.5l2,0l2,0l-1,0.5l-1,0.5l-0.199997,0.299988l-0.300003,0.200012l-0.300003,0.200012l-0.199997,0.299988l-1,0.5l-1,0.5l-1,0.5l-1,0.5l-0.199997,0.299988l-0.300003,0.200012l-11.300003,9.200012q-11.199997,9.299988 -22,21q-10.699997,11.799988 -13.699997,16.799988q-3,5 0,15.5q3,10.5 3.300003,12.5l0.199997,2l0,3.5l0,3.5l-1.199997,-0.5q-1.300003,-0.5 -1.800003,1l-0.5,1.5l-0.5,1.5l-0.5,1.5l-0.300003,0.200012l-0.199997,0.299988l-0.199997,0.299988l-0.300003,0.200012l-0.5,-1l-0.5,-1l-0.300003,-0.200012l-0.199997,-0.299988l-0.199997,-0.299988l-0.300003,-0.200012l-0.300003,0.200012l-0.199997,0.299988l-1,0.299988l-1,0.200012l-0.199997,-1q-0.300003,-1 -0.600006,-1l-0.199997,0l-0.199997,-0.5q-0.300003,-0.5 -0.600006,-0.5l-0.199997,0l-0.199997,-0.5q-0.300003,-0.5 -0.600006,-0.5l-0.199997,0l-0.199997,0q-0.300003,0 -1,-1.799988q-0.800003,-1.700012 -1,-3.400024q-0.300003,-1.799988 -0.800003,-4.799988q-0.5,-3 -1.5,-6.5q-1,-3.5 -2.300003,-4q-1.199997,-0.5 -1,-1.5q0.300003,-1 -1.399994,-2.200012q-1.800003,-1.299988 -0.600006,-4.599976q1.300003,-3.200012 2.600006,-5q1.199997,-1.700012 2.699997,-4.400024q1.5,-2.799988 2.5,-3q1,-0.299988 1.5,-2q0.5,-1.799988 1.5,-1.799988q1,0 1.199997,-1.5q0.300003,-1.5 2,-2.5q1.800003,-1 4.600006,-5q2.699997,-4 2,-4.5q-0.800003,-0.5 -0.800003,-1.5q0,-1 1.5,-0.799988q1.5,0.299988 1.699997,-1l0.300003,-1.200012l-0.300003,-0.200012q-0.199997,-0.299988 0,-0.599976l0.300003,-0.200012l0.300003,-0.200012l0.199997,-0.299988l-1,-0.5l-1,-0.5l-1,-0.5q-1,-0.5 -1.5,-1.799988q-0.5,-1.200012 -1.5,-1.400024q-1,-0.299988 -2.5,0.200012q-1.5,0.5 -2,-1.200012q-0.5,-1.799988 -3,-2.299988l-2.5,-0.5l0.199997,-1l0.300003,-1l0.300003,-0.200012l0.199997,-0.299988l-0.199997,-0.299988l-0.300003,-0.200012l-0.300003,-0.200012l-0.199997,-0.299988l1,-0.5l1,-0.5l0.199997,-0.299988q0.300003,-0.200012 0.600006,-0.400024q0.199997,-0.299988 0.399994,-2.599976q0.300003,-2.200012 4,-5.400024q3.800003,-3.299988 6,-4.599976q2.300003,-1.200012 2.600006,-3q0.199997,-1.700012 4,-4q3.699997,-2.200012 5.199997,-5.200012q1.5,-3 3.199997,-3.5q1.800003,-0.5 1.800003,-1.5q0,-1 2,-1.5q2,-0.5 4.5,-4.5q2.5,-4 5,-4.5q2.5,-0.5 2.5,-1.5q0,-1 1,-1.200012q1,-0.299988 1.5,-1.599976q0.5,-1.200012 1.5,-1.400024q1,-0.299988 3.5,-3q2.5,-2.799988 3.5,-2.799988q1,0 1,-1q0,-1 1.5,-0.799988q1.5,0.299988 2.5,-2q1,-2.200012 4,-3q3,-0.700012 3.800003,-2q0.699997,-1.200012 -1,-1.200012q-1.800003,0 -1.800003,-1q0,-1 2,-2.200012l2,-1.299988l1,-0.5l1,-0.5l1,-0.5l1,-0.5l0.199997,-0.299988l0.300003,-0.200012l0.300003,-0.200012l0.199997,-0.299988l-1,-0.299988l-1,-0.200012l0,-1l0,-1l-6,0.200012q-6,0.299988 -22.199997,0q-16.300003,-0.200012 -21.800003,-0.700012q-5.5,-0.5 -9.199997,-0.5q-3.800003,0 -4,-1q-0.300003,-1 -9,-1.799988q-8.800003,-0.700012 -9.300003,-1.400024q-0.5,-0.799988 -2.5,-1l-2,-0.299988l-1,-0.5l-1,-0.5l-2,-0.5l-2,-0.5l0.199997,-0.299988l0.300003,-0.200012l0.5,-1l0.5,-1l0.300003,-0.200012l0.199997,-0.299988l0.199997,-0.299988q0.300003,-0.200012 1.800003,-1.700012q1.5,-1.5 2.199997,-2.299988l0.800003,-0.700012l0.199997,-0.299988l0.300003,-0.200012l0.300003,-0.200012l0.199997,-0.299988l0.199997,-0.299988l0.300003,-0.200012l0.300003,-0.200012l0.199997,-0.299988l-0.199997,-0.299988l-0.300003,-0.200012l-0.300003,-0.200012l-0.199997,-0.299988l-0.199997,-0.299988l-0.300003,-0.200012l-0.300003,-0.200012l-0.199997,-0.299988l-0.199997,-0.299988l-0.300003,-0.200012l-0.300003,0.200012l-0.199997,0.299988l-2.5,0q-2.5,0 -4.5,-0.299988q-2,-0.200012 -2,-1.200012q0,-1 -1,-0.799988q-1,0.299988 -15,-4.700012l-14,-5l-1,-0.5l-1,-0.5l-0.200001,-0.299988l-0.299999,-0.200012l-0.299999,-0.200012l-0.200001,-0.299988l0,-0.299988l0,-0.200012l0.200001,-1l0.299999,-1l0.299999,0.200012l0.200001,0.299988l0.200001,0.299988l0.299999,0.200012l0.299999,0.200012l0.200001,0.299988l0.5,0l0.5,0l0.200001,-0.299988l0.299999,-0.200012l0.299999,0.200012l0.200001,0.299988l0.5,0l0.5,0l0.200001,-0.299988l0.299999,-0.200012l0.299999,-0.200012l0.200001,-0.299988l-0.200001,-0.299988l-0.299999,-0.200012l-0.299999,-0.200012l-0.200001,-0.299988l-1,-0.299988q-1,-0.200012 -2.200001,-2.200012q-1.299999,-2 -0.799999,-3q0.5,-1 2.200001,-2.799988q1.799999,-1.700012 1.799999,-3.400024q0,-1.799988 3,-1.799988zm122.199997,51.200012q0.300003,-0.200012 0.600006,0q0.199997,0.299988 -0.300003,0.299988q-0.5,0 -0.300003,-0.299988zm-3.199997,7.799988l2,-0.5l0.199997,0.299988l0.300003,0.200012l0.300003,0.200012l0.199997,0.299988l-0.199997,0.299988l-0.300003,0.200012l-0.300003,0.200012l-0.199997,0.299988l-0.5,0q-0.5,0 -2,-0.5q-1.5,-0.5 0.5,-1zm-49,63q1,0 1,1q0,1 -1,1l-1,0l0,-1q0,-1 1,-1z"/>
 </g>
<script xmlns=""/></svg>